<svg xmlns="http://www.w3.org/2000/svg" xmlns:xlink="http://www.w3.org/1999/xlink" width="1024" zoomAndPan="magnify" viewBox="0 0 768 767.999994" height="1024" preserveAspectRatio="xMidYMid meet" version="1.0"><defs><clipPath id="eacf220cd7"><path d="M 386 38 L 707.421875 38 L 707.421875 702 L 386 702 Z M 386 38 " clip-rule="nonzero"/></clipPath></defs><path fill="#c96533" d="M 204.675781 584.296875 C 202.671875 589.785156 205.414062 596.019531 210.832031 598.019531 C 216.320312 600.023438 222.402344 597.128906 224.480469 591.640625 C 235.234375 563.082031 267.28125 548.46875 295.988281 559.152344 C 301.550781 561.152344 307.5625 558.261719 309.636719 552.769531 C 311.714844 547.28125 309.042969 541.199219 303.480469 539.121094 C 263.796875 524.433594 219.511719 544.683594 204.675781 584.296875 Z M 204.675781 584.296875 " fill-opacity="1" fill-rule="nonzero"/><path fill="#c96533" d="M 341.3125 45.679688 C 326.773438 36.183594 308.378906 35.589844 287.011719 43.675781 C 285.308594 44.195312 249.773438 56.878906 226.707031 78.6875 C 225.222656 78.613281 223.886719 78.390625 222.402344 78.390625 C 180.046875 78.390625 145.699219 112.8125 145.699219 155.242188 C 145.699219 165.332031 147.703125 175.121094 151.5625 184.320312 C 114.101562 194.632812 86.503906 228.457031 86.503906 269.109375 C 86.503906 276.824219 87.914062 284.390625 89.769531 291.808594 C 62.992188 307.53125 46.003906 336.390625 46.003906 367.839844 C 46.003906 390.539062 54.757812 411.011719 69 426.664062 C 63.808594 438.089844 60.839844 450.550781 60.839844 463.308594 C 60.839844 498.84375 82.425781 530.515625 114.324219 544.316406 C 111.132812 552.695312 109.425781 561.820312 109.425781 570.945312 C 109.425781 613.375 143.847656 647.722656 186.277344 647.722656 C 188.207031 647.722656 190.28125 647.277344 192.359375 647.128906 C 203.933594 678.875 238.277344 701.203125 278.261719 701.203125 C 327.960938 701.203125 368.460938 666.710938 368.460938 624.429688 L 368.460938 549.359375 C 368.460938 549.359375 368.460938 549.359375 368.460938 549.210938 L 368.460938 265.175781 C 368.460938 265.175781 368.460938 265.175781 368.460938 265.101562 L 368.460938 265.027344 L 368.386719 99.015625 C 368.386719 97.53125 366.089844 61.851562 341.3125 45.679688 Z M 347.246094 212.433594 C 333.300781 197.671875 313.570312 188.328125 291.613281 188.328125 C 285.753906 188.328125 281.003906 193.074219 281.003906 198.933594 C 281.003906 204.71875 285.753906 209.542969 291.613281 209.542969 C 322.324219 209.542969 347.246094 234.464844 347.246094 265.175781 L 347.246094 496.691406 C 333.300781 481.929688 313.570312 472.507812 291.613281 472.507812 C 285.753906 472.433594 281.003906 477.183594 281.003906 482.96875 C 281.003906 488.902344 285.753906 493.574219 291.613281 493.574219 C 322.324219 493.574219 347.246094 518.648438 347.246094 549.210938 L 347.246094 624.429688 C 347.246094 654.992188 316.386719 680.0625 278.261719 680.0625 C 244.507812 680.0625 215.800781 660.480469 210.238281 633.699219 C 208.976562 627.988281 203.265625 624.429688 197.550781 625.394531 C 197.550781 625.394531 197.476562 625.394531 197.402344 625.394531 C 193.769531 626.28125 190.058594 626.578125 186.277344 626.578125 C 155.566406 626.578125 130.570312 601.65625 130.570312 570.945312 C 130.570312 561.226562 133.164062 551.808594 137.914062 543.425781 C 138.207031 542.980469 138.28125 542.386719 138.429688 541.792969 C 138.503906 541.496094 138.800781 541.347656 139.023438 541.050781 C 139.023438 540.753906 139.023438 540.308594 139.023438 539.863281 C 139.097656 539.417969 139.097656 538.972656 139.097656 538.378906 C 139.097656 537.488281 139.097656 536.675781 139.023438 535.933594 C 138.800781 535.414062 138.652344 534.96875 138.429688 534.597656 C 138.132812 533.707031 137.839844 533.113281 137.320312 532.445312 C 137.097656 531.925781 136.652344 531.554688 136.28125 531.109375 C 135.6875 530.515625 135.09375 530.070312 134.574219 529.480469 C 134.277344 529.332031 134.203125 529.183594 133.90625 529.035156 C 133.535156 528.738281 133.015625 528.738281 132.496094 528.515625 C 132.199219 528.367188 131.902344 528.21875 131.53125 528.070312 C 102.378906 520.058594 82.128906 493.425781 82.128906 463.308594 C 82.128906 455.890625 83.761719 448.546875 86.132812 441.722656 C 100.007812 450.699219 116.472656 456.1875 134.277344 456.1875 C 140.0625 456.1875 144.886719 451.441406 144.886719 445.582031 C 144.886719 439.648438 140.0625 434.824219 134.277344 434.824219 C 97.1875 434.824219 67.21875 404.78125 67.21875 367.765625 C 67.21875 341.730469 82.425781 317.992188 106.015625 306.941406 L 106.089844 306.941406 C 106.238281 306.867188 106.386719 306.71875 106.535156 306.644531 C 115.289062 302.710938 124.632812 300.707031 134.277344 300.707031 C 140.0625 300.707031 144.886719 295.960938 144.886719 290.101562 C 144.886719 284.242188 140.0625 279.640625 134.277344 279.640625 C 125.671875 279.640625 117.511719 281.199219 109.425781 283.574219 C 108.386719 278.824219 107.648438 274.003906 107.648438 269.109375 C 107.648438 232.09375 137.839844 202.050781 174.78125 202.050781 C 200.371094 202.050781 223.292969 216.21875 234.789062 239.140625 C 237.460938 244.40625 243.765625 246.410156 249.035156 243.8125 C 254.226562 241.214844 256.378906 234.910156 253.707031 229.644531 C 238.648438 199.527344 208.457031 180.835938 174.78125 180.835938 C 174.410156 180.835938 174.113281 180.910156 173.667969 180.910156 C 169.4375 172.972656 166.84375 164.292969 166.84375 155.167969 C 166.84375 124.457031 191.765625 99.53125 222.476562 99.53125 C 242.652344 99.53125 261.273438 110.511719 271.140625 128.167969 C 275.589844 136.402344 278.039062 145.746094 278.039062 155.167969 C 278.039062 160.953125 282.859375 165.777344 288.644531 165.777344 C 294.503906 165.777344 299.328125 160.953125 299.328125 155.167969 C 299.328125 142.113281 295.988281 129.203125 289.683594 117.929688 C 281.152344 102.796875 268.171875 91.375 252.816406 84.695312 C 271.65625 71.640625 293.691406 63.777344 294.132812 63.554688 C 309.191406 57.917969 321.210938 57.84375 329.742188 63.40625 C 345.320312 73.570312 347.246094 99.605469 347.246094 99.605469 Z M 347.246094 212.433594 " fill-opacity="1" fill-rule="nonzero"/><path fill="#c96533" d="M 232.789062 315.839844 C 231.75 310.203125 226.1875 306.421875 220.398438 307.53125 C 214.613281 308.644531 210.980469 314.210938 212.09375 319.921875 C 216.097656 341.210938 227.371094 359.828125 243.394531 373.996094 C 243.023438 375.332031 242.800781 376.667969 242.875 378.078125 C 244.65625 408.714844 221.289062 435.195312 190.726562 437.050781 C 184.792969 437.347656 180.417969 442.390625 180.714844 448.175781 C 181.085938 453.816406 185.757812 458.191406 191.320312 458.191406 C 191.46875 458.191406 191.691406 458.191406 192.0625 458.191406 C 230.488281 455.890625 260.382812 425.332031 263.574219 387.871094 C 277.074219 394.695312 291.761719 398.253906 306.746094 398.253906 C 312.902344 398.253906 319.058594 397.734375 325.066406 396.546875 C 330.707031 395.511719 334.488281 389.945312 333.449219 384.160156 C 332.410156 378.523438 326.625 374.664062 321.0625 375.777344 C 301.183594 379.636719 281.152344 375.480469 264.609375 364.132812 C 247.847656 352.78125 236.570312 335.648438 232.789062 315.839844 Z M 232.789062 315.839844 " fill-opacity="1" fill-rule="nonzero"/><path fill="#c96533" d="M 451.394531 539.195312 C 445.980469 541.199219 443.234375 547.28125 445.238281 552.84375 C 447.167969 558.335938 453.398438 561.226562 458.886719 559.226562 C 487.59375 548.46875 519.714844 563.15625 530.472656 591.714844 C 532.472656 597.128906 538.554688 600.023438 544.046875 598.019531 C 549.609375 596.019531 552.28125 589.785156 550.203125 584.222656 C 535.515625 544.683594 491.082031 524.433594 451.394531 539.195312 Z M 451.394531 539.195312 " fill-opacity="1" fill-rule="nonzero"/><g clip-path="url(#eacf220cd7)"><path fill="#c96533" d="M 708.949219 367.839844 C 708.949219 336.390625 691.960938 307.53125 665.105469 291.808594 C 666.960938 284.390625 668.371094 276.824219 668.371094 269.109375 C 668.371094 228.53125 640.777344 194.632812 603.464844 184.320312 C 607.171875 175.121094 609.25 165.332031 609.25 155.242188 C 609.25 112.886719 574.832031 78.390625 532.472656 78.390625 C 531.066406 78.390625 529.730469 78.613281 528.171875 78.6875 C 505.101562 56.878906 469.496094 44.195312 467.9375 43.675781 C 446.5 35.589844 428.101562 36.183594 413.5625 45.679688 C 388.863281 61.851562 386.5625 97.53125 386.5625 99.015625 L 386.488281 265.027344 L 386.488281 265.101562 C 386.488281 265.101562 386.488281 265.175781 386.488281 265.175781 L 386.488281 549.210938 C 386.488281 549.359375 386.488281 549.359375 386.488281 549.359375 L 386.488281 624.429688 C 386.488281 666.710938 426.992188 701.203125 476.691406 701.203125 C 516.671875 701.203125 551.019531 678.875 562.515625 647.128906 C 564.59375 647.277344 566.671875 647.722656 568.597656 647.722656 C 610.957031 647.722656 645.449219 613.375 645.449219 570.945312 C 645.449219 561.820312 643.742188 552.695312 640.554688 544.316406 C 672.597656 530.515625 694.039062 498.769531 694.039062 463.308594 C 694.039062 450.550781 691.21875 438.089844 685.953125 426.664062 C 700.195312 411.011719 708.949219 390.539062 708.949219 367.839844 Z M 623.34375 528.070312 C 622.972656 528.21875 622.75 528.367188 622.378906 528.515625 C 621.933594 528.738281 621.339844 528.738281 620.96875 529.035156 C 620.671875 529.183594 620.597656 529.332031 620.300781 529.480469 C 619.710938 530.070312 619.191406 530.515625 618.671875 531.109375 C 618.226562 531.554688 617.78125 531.925781 617.558594 532.371094 C 617.039062 533.113281 616.816406 533.707031 616.445312 534.597656 C 616.296875 534.96875 616.074219 535.414062 615.925781 536.007812 C 615.777344 536.75 615.777344 537.5625 615.777344 538.453125 C 615.777344 539.046875 615.777344 539.492188 615.925781 539.9375 C 615.925781 540.382812 615.777344 540.828125 615.925781 541.125 C 616.074219 541.421875 616.371094 541.570312 616.445312 541.867188 C 616.742188 542.386719 616.742188 542.980469 617.039062 543.425781 C 621.710938 551.808594 624.382812 561.226562 624.382812 570.945312 C 624.382812 601.65625 599.234375 626.578125 568.597656 626.578125 C 564.816406 626.578125 561.105469 626.28125 557.472656 625.394531 L 557.324219 625.394531 C 551.6875 624.355469 545.976562 627.988281 544.714844 633.625 C 539.148438 660.480469 510.441406 680.0625 476.691406 680.0625 C 438.488281 680.0625 407.628906 654.992188 407.628906 624.429688 L 407.628906 549.210938 C 407.628906 518.648438 432.628906 493.574219 463.265625 493.574219 C 469.125 493.574219 473.945312 488.902344 473.945312 482.96875 C 473.945312 477.183594 469.199219 472.359375 463.265625 472.359375 C 441.308594 472.359375 421.574219 481.78125 407.628906 496.542969 L 407.628906 265.101562 C 407.628906 234.390625 432.628906 209.46875 463.265625 209.46875 C 469.125 209.46875 473.945312 204.71875 473.945312 198.859375 C 473.945312 193 469.199219 188.179688 463.265625 188.179688 C 441.308594 188.179688 421.574219 197.523438 407.628906 212.285156 L 407.628906 99.605469 C 407.628906 99.605469 409.484375 73.570312 425.285156 63.40625 C 433.667969 57.84375 445.757812 57.917969 460.816406 63.554688 C 461.261719 63.777344 483.292969 71.640625 502.132812 84.695312 C 486.777344 91.375 473.648438 102.796875 465.265625 117.929688 C 459.035156 129.277344 455.699219 142.1875 455.699219 155.167969 C 455.699219 160.953125 460.371094 165.777344 466.304688 165.777344 C 472.164062 165.777344 476.914062 160.953125 476.914062 155.167969 C 476.914062 145.746094 479.285156 136.402344 483.886719 128.167969 C 493.605469 110.585938 512.222656 99.605469 532.472656 99.605469 C 563.109375 99.605469 588.109375 124.53125 588.109375 155.242188 C 588.109375 164.367188 585.4375 173.046875 581.285156 180.984375 C 580.839844 180.984375 580.46875 180.910156 580.097656 180.910156 C 546.417969 180.910156 516.230469 199.527344 501.171875 229.71875 C 498.574219 234.910156 500.652344 241.214844 505.917969 243.8125 C 511.109375 246.410156 517.414062 244.332031 520.085938 239.140625 C 531.507812 216.21875 554.503906 202.050781 580.097656 202.050781 C 617.039062 202.050781 647.230469 232.09375 647.230469 269.109375 C 647.230469 274.003906 646.414062 278.824219 645.449219 283.574219 C 637.511719 281.199219 629.351562 279.640625 620.597656 279.640625 C 614.8125 279.640625 609.917969 284.316406 609.917969 290.175781 C 609.917969 296.035156 614.8125 300.78125 620.597656 300.78125 C 630.316406 300.78125 639.589844 302.785156 648.269531 306.71875 C 648.492188 306.792969 648.640625 306.941406 648.789062 307.015625 L 648.9375 307.015625 C 672.523438 317.992188 687.65625 341.804688 687.65625 367.839844 C 687.65625 404.855469 657.613281 434.898438 620.597656 434.898438 C 614.8125 434.898438 609.917969 439.648438 609.917969 445.65625 C 609.917969 451.441406 614.738281 456.261719 620.597656 456.261719 C 638.402344 456.261719 654.871094 450.773438 668.667969 441.796875 C 671.191406 448.472656 672.746094 455.890625 672.746094 463.308594 C 672.746094 493.425781 652.496094 520.058594 623.34375 528.070312 Z M 623.34375 528.070312 " fill-opacity="1" fill-rule="nonzero"/></g><path fill="#c96533" d="M 564.296875 437.050781 C 533.660156 435.195312 510.292969 408.714844 512 378.078125 C 512.148438 376.667969 511.925781 375.332031 511.480469 373.996094 C 527.578125 359.902344 538.777344 341.285156 542.859375 319.921875 C 544.046875 314.210938 540.335938 308.644531 534.550781 307.53125 C 528.691406 306.421875 523.128906 310.203125 522.089844 315.839844 C 518.230469 335.648438 506.957031 352.78125 490.339844 364.132812 C 473.648438 375.480469 453.621094 379.636719 433.890625 375.777344 C 428.324219 374.664062 422.464844 378.523438 421.425781 384.160156 C 420.386719 389.945312 424.171875 395.511719 429.957031 396.621094 C 436.039062 397.734375 442.121094 398.328125 448.207031 398.328125 C 463.191406 398.328125 477.953125 394.769531 491.378906 387.945312 C 494.566406 425.332031 524.386719 455.964844 562.960938 458.265625 C 563.257812 458.265625 563.40625 458.265625 563.554688 458.265625 C 569.191406 458.265625 573.867188 453.890625 574.238281 448.25 C 574.460938 442.390625 570.15625 437.347656 564.296875 437.050781 Z M 564.296875 437.050781 " fill-opacity="1" fill-rule="nonzero"/></svg>