<?xml version="1.0" encoding="UTF-8"?>
<svg version="1.1" xmlns="http://www.w3.org/2000/svg" width="512" height="512">
<path d="M0 0 C150.48 0 300.96 0 456 0 C454.85136523 19.52679117 454.85136523 19.52679117 454.23943329 26.02033901 C454.13431694 27.17332013 454.13431694 27.17332013 454.02707702 28.34959379 C453.7973323 30.86225378 453.56367663 33.37453254 453.32995605 35.88682556 C453.16045243 37.73146177 452.99119331 39.57612045 452.82215452 41.42079931 C452.36140296 46.44106264 451.8971795 51.46099952 451.43233085 56.48088491 C450.92995929 61.91266331 450.43084557 67.34474124 449.93128967 72.77677917 C448.95427596 83.39468753 447.9741973 94.01231079 446.99294579 104.62982827 C446.19591427 113.25441687 445.39989901 121.87909869 444.604599 130.50384712 C444.4912334 131.73322674 444.3778678 132.96260636 444.26106688 134.2292399 C444.03075623 136.72683027 443.80044649 139.22442073 443.57013768 141.72201128 C441.47540504 164.43683784 439.37731602 187.15135337 437.27793293 209.86575053 C435.36109085 230.60541903 433.44790335 251.34542181 431.53759766 272.08569336 C429.38943774 295.40827918 427.23859736 318.73061583 425.08376932 342.05258662 C423.94342132 354.39527692 422.80425966 366.73807398 421.66819763 379.08115959 C420.70223595 389.57576339 419.73347332 400.07010393 418.76102674 410.5641089 C418.26468761 415.92111902 417.76967446 421.2782432 417.27813911 426.63569641 C416.82885283 431.53228376 416.37588723 436.42851579 415.91989142 441.32448275 C415.75496327 443.10246801 415.59142173 444.88058252 415.42935222 446.65883064 C415.21012606 449.06200756 414.98600406 451.46467711 414.76056671 453.8672781 C414.69770141 454.56949404 414.63483611 455.27170998 414.5700658 455.99520519 C414.11414927 460.77170146 414.11414927 460.77170146 413 463 C410.90465095 463.73878438 408.77062883 464.36824394 406.62695312 464.95214844 C405.95423874 465.13766014 405.28152435 465.32317184 404.58842468 465.51430511 C402.32143277 466.13716854 400.05143779 466.74827087 397.78125 467.359375 C396.1613331 467.80153692 394.5415858 468.24432063 392.92199707 468.68768311 C388.52848369 469.88767029 384.13207282 471.07667573 379.73468018 472.26235962 C377.02241651 472.99395347 374.31069117 473.72750989 371.59912109 474.46166992 C358.23817368 478.07803146 344.86990851 481.66693321 331.5 485.25 C324.30315283 487.17906041 317.10637472 489.10837801 309.90979576 491.0384388 C307.88485672 491.58149738 305.85989475 492.12447046 303.83490944 492.66735649 C292.08557425 495.81782018 280.34162026 498.98626424 268.61091232 502.20542526 C265.51854643 503.05351252 262.42520548 503.8980306 259.33203125 504.74316406 C255.04128031 505.91560079 250.7541409 507.10013503 246.46875 508.29199219 C244.6082199 508.80066812 242.74755316 509.30884466 240.88671875 509.81640625 C240.08598434 510.04322586 239.28524994 510.27004547 238.46025085 510.5037384 C237.71628555 510.70432358 236.97232025 510.90490875 236.20581055 511.11157227 C235.26755684 511.37152733 235.26755684 511.37152733 234.31034851 511.63673401 C227.61365967 512.68968308 221.902949 511.74803786 215.47290039 509.96240234 C214.65417639 509.74372025 213.83545238 509.52503817 212.99191856 509.29972935 C210.27450319 508.57131041 207.56118839 507.82868001 204.84765625 507.0859375 C202.90396363 506.5617686 200.96003365 506.03847916 199.0158844 505.51600647 C193.78096214 504.1064688 188.54946999 502.68457357 183.31855011 501.26026535 C177.87817298 499.78111816 172.43476836 498.31319755 166.99169922 496.84399414 C156.94807218 494.13109559 146.90726644 491.4079146 136.86770248 488.68002224 C129.42597599 486.65817548 121.98322635 484.64014722 114.53955078 482.62548828 C113.54161971 482.35539318 112.54368864 482.08529808 111.51551723 481.80701828 C109.53523912 481.27105377 107.55496079 480.73509007 105.57468224 480.1991272 C91.3443393 476.34693058 77.11525562 472.49004454 62.89008904 468.61877251 C61.38190126 468.20841393 59.87363908 467.79832866 58.36529732 467.38853645 C56.32223858 466.83335786 54.2794824 466.27708055 52.23681641 465.72045898 C51.09709381 465.41027328 49.95737122 465.10008759 48.78311157 464.78050232 C46.84103723 464.23586245 44.91349335 463.63783112 43 463 C41.51998456 460.03996912 41.51250698 456.91924203 41.22102261 453.66476059 C41.14895707 452.89604045 41.07689153 452.12732032 41.00264218 451.33530563 C40.75966113 448.73264845 40.52250027 446.12949274 40.28526306 443.52630615 C40.11150244 441.6520401 39.93738831 439.7778068 39.76294905 437.90360379 C39.28268889 432.73232298 38.80750999 427.56058568 38.33312881 422.38876271 C37.82138607 416.81917397 37.30500575 411.25001503 36.78919983 405.68080139 C35.7786162 394.76124381 34.77238757 383.84128904 33.76764052 372.92119303 C32.59823868 360.21308174 31.42474839 347.50534901 30.25112385 334.79762712 C28.09412017 311.4403329 25.94149585 288.08263751 23.79082913 264.72475919 C21.82697968 243.39611693 19.85972118 222.06779186 17.8894043 200.73974609 C17.76294855 199.37089244 17.63649291 198.00203879 17.51003736 196.63318512 C17.44752064 195.95645544 17.38500393 195.27972576 17.32059277 194.58248912 C17.0059026 191.17601481 16.69122073 187.76953972 16.37654781 184.36306381 C16.3144694 183.69103957 16.252391 183.01901532 16.18843142 182.3266267 C14.54318759 164.51566435 12.90054961 146.70446173 11.25871378 128.8931849 C11.02337825 126.34018973 10.78804225 123.78719461 10.55270576 121.23419952 C10.43690812 119.9779636 10.32111048 118.72172768 10.20180381 117.427424 C9.38468338 108.56399525 8.56638145 99.70067603 7.7476635 90.83739471 C6.75003619 80.03670667 5.75441808 69.23583561 4.76135557 58.43472686 C4.25438046 52.92106627 3.74652779 47.40749027 3.23630905 41.8941288 C2.76952885 36.8498572 2.30527422 31.80535984 1.84306032 26.76066783 C1.67513807 24.93281938 1.50628557 23.10505611 1.33642387 21.27738687 C1.10613413 18.79801699 0.87920883 16.31836141 0.65313625 13.83860397 C0.58603959 13.12496057 0.51894293 12.41131718 0.44981304 11.67604822 C0.09517161 7.74094148 0 3.97079074 0 0 Z " fill="#2062AF" transform="translate(28,0)"/>
<path d="M0 0 C94.38 0 188.76 0 286 0 C282 44 282 44 280 56 C276.41514373 58.41251138 273.96343196 59.62478313 270 61 C268.066626 61.82079724 266.13709802 62.65069615 264.2109375 63.48828125 C261.93334221 64.43222629 259.65460454 65.37341763 257.375 66.3125 C254.6260598 67.45333917 251.87913053 68.59895794 249.1328125 69.74609375 C248.37029175 70.0645929 247.607771 70.38309204 246.82214355 70.71124268 C234.93252277 75.6897651 223.0950469 80.79161664 211.25 85.875 C210.1140741 86.36239655 208.97814819 86.84979309 207.80780029 87.35195923 C199.53817011 90.90045955 191.26915006 94.45038092 183 98 C171.45 102.95 159.9 107.9 148 113 C189.91 113.33 231.82 113.66 275 114 C272.70220366 146.1691487 272.70220366 146.1691487 271.66796875 157.82421875 C271.54969505 159.17618163 271.43161974 160.52816187 271.3137207 161.88015747 C271.06708156 164.70371859 270.81910179 167.52715691 270.56991577 170.35049438 C270.17675674 174.80531056 269.78709304 179.26042904 269.39770508 183.71557617 C268.23521255 197.00589367 267.06327939 210.29537448 265.88676453 223.5844574 C265.42737252 228.77380282 264.96946391 233.96327918 264.51138306 239.15274048 C264.19642915 242.71160393 263.87897224 246.27023759 263.5612793 249.82885742 C262.64023962 260.21289584 261.76790511 270.58262998 261.23950195 280.99487305 C261.04202867 283.47264947 260.7093441 285.62832502 260 288 C259.195625 288.20753906 258.39125 288.41507812 257.5625 288.62890625 C246.36016123 291.56460687 235.25504802 294.81121837 224.14501953 298.07666016 C219.09874332 299.55818605 214.04926346 301.02869418 209 302.5 C206.99998358 303.08327704 204.99998361 303.66661046 203 304.25 C191 307.75 191 307.75 187.99462891 308.62646484 C186.01245948 309.20466493 184.03036204 309.78311183 182.04833984 310.36181641 C176.7761232 311.90081355 171.50240011 313.43439551 166.2265625 314.9609375 C165.12183594 315.28126953 164.01710938 315.60160156 162.87890625 315.93164062 C160.74915091 316.5490907 158.61895849 317.16503563 156.48828125 317.77929688 C155.05935547 318.19405273 155.05935547 318.19405273 153.6015625 318.6171875 C152.75932129 318.86065918 151.91708008 319.10413086 151.04931641 319.35498047 C148.96478355 319.95175408 148.96478355 319.95175408 147 321 C140.62851802 320.90757366 134.65322328 319.21869096 128.625 317.3125 C127.76430908 317.04775879 126.90361816 316.78301758 126.0168457 316.51025391 C120.86132247 314.91822457 115.72160048 313.27653253 110.58081055 311.63769531 C109.79101807 311.38600586 109.00122559 311.13431641 108.1875 310.875 C107.39448486 310.62202148 106.60146973 310.36904297 105.78442383 310.10839844 C99.97042422 308.26865486 94.11791362 306.66075609 88.21484375 305.12890625 C75.58485876 301.79995161 63.05183738 297.99821668 50.58544922 294.10546875 C45.93424602 292.67140583 41.27208853 291.27501185 36.609375 289.87890625 C35.68366699 289.60147583 34.75795898 289.32404541 33.80419922 289.03820801 C31.53621121 288.35854321 29.26814293 287.67914759 27 287 C26.91270126 285.98666847 26.91270126 285.98666847 26.82363892 284.9528656 C26.26513938 278.47020159 25.70654951 271.98754538 25.1478672 265.50489712 C24.86090107 262.1750624 24.57397543 258.8452242 24.28710938 255.51538086 C24.06483553 252.93534694 23.84248472 250.35531965 23.62005615 247.77529907 C23.39951563 245.21557719 23.17934107 242.65582376 22.95953369 240.09603882 C22.44678387 234.13350872 21.92795968 228.17170676 21.38964844 222.21142578 C21.29581879 221.16350357 21.20198914 220.11558136 21.10531616 219.03590393 C20.93198842 217.10511697 20.75625887 215.17454332 20.57754517 213.24424744 C20.50087616 212.38642166 20.42420715 211.52859589 20.34521484 210.64477539 C20.27813324 209.91158585 20.21105164 209.1783963 20.14193726 208.42298889 C19.9582336 205.2870123 20 202.14135261 20 199 C39.14 199 58.28 199 78 199 C78.495 204.548125 78.99 210.09625 79.5 215.8125 C79.65662109 217.53960205 79.81324219 219.2667041 79.97460938 221.04614258 C80.68303737 229.04751497 81.24003792 236.95761827 81 245 C81.91136719 245.1043335 82.82273437 245.20866699 83.76171875 245.31616211 C89.20899477 246.09805756 94.49122948 247.5649391 99.8125 248.94140625 C102.1275366 249.5308644 104.44264291 250.12004879 106.7578125 250.70898438 C110.38597456 251.63618681 114.01342855 252.56596163 117.63964844 253.50073242 C121.1537656 254.40498174 124.67039514 255.29885954 128.1875 256.19140625 C129.26684814 256.47262833 130.34619629 256.7538504 131.45825195 257.04359436 C138.70152899 258.87257914 144.88177216 259.96924024 152.15234375 257.609375 C153.55166138 257.16646118 153.55166138 257.16646118 154.97924805 256.71459961 C155.95547119 256.39628174 156.93169434 256.07796387 157.9375 255.75 C165.89543077 253.23620981 173.80941273 250.98513008 181.92578125 249.04296875 C187.8591462 247.57496597 193.69044133 245.7349362 199.52807617 243.92944336 C200.34123291 243.6794458 201.15438965 243.42944824 201.9921875 243.171875 C202.71776855 242.9459668 203.44334961 242.72005859 204.19091797 242.48730469 C206 242 206 242 208 242 C207.99279434 241.32566925 207.98558868 240.6513385 207.97816467 239.95657349 C207.93916796 233.50063809 208.16093315 227.11778258 208.62109375 220.6796875 C208.71741844 219.26527878 208.71741844 219.26527878 208.81568909 217.82229614 C209.0194621 214.83961118 209.22825369 211.8573055 209.4375 208.875 C209.64214779 205.91405552 209.845709 202.95303929 210.04859924 199.99197388 C210.17425811 198.16284751 210.30103566 196.33379739 210.42930603 194.50485229 C211.01928871 186.00579348 211.49960175 177.5067702 212 169 C147.32 169 82.64 169 16 169 C14.84348411 166.68696822 14.73213672 165.02227096 14.51928711 162.44604492 C14.43927963 161.50133835 14.35927216 160.55663177 14.27684021 159.58329773 C14.19450638 158.55936417 14.11217255 157.5354306 14.02734375 156.48046875 C13.93997452 155.42974686 13.85260529 154.37902496 13.7625885 153.29646301 C13.57829313 151.06979213 13.39601263 148.84295371 13.21557617 146.6159668 C12.93946035 143.21166967 12.65678868 139.80796597 12.37304688 136.40429688 C12.19492298 134.24221956 12.01717627 132.08011112 11.83984375 129.91796875 C11.75548569 128.90010788 11.67112762 127.88224701 11.58421326 126.83354187 C11.50735794 125.87937881 11.43050262 124.92521576 11.35131836 123.94213867 C11.28327499 123.1065593 11.21523163 122.27097992 11.14512634 121.41007996 C10.99602796 118.93403732 10.97514863 116.47990426 11 114 C21.27870978 109.08445959 31.75788624 104.72161793 42.29586792 100.39923096 C45.32076077 99.15847523 48.34426972 97.91440045 51.36743164 96.66943359 C55.54098483 94.95079256 59.71494276 93.2331404 63.88916016 91.51611328 C73.07830267 87.73443816 82.25860872 83.93147569 91.4375 80.125 C92.27587402 79.77745667 93.11424805 79.42991333 93.97802734 79.07183838 C106.87473134 73.72478287 119.75763996 68.34535953 132.62670898 62.93212891 C133.79661377 62.44019043 134.96651855 61.94825195 136.171875 61.44140625 C137.6892627 60.80247437 137.6892627 60.80247437 139.23730469 60.15063477 C141.81522175 59.07695828 144.40716545 58.03713382 147 57 C100.47 56.67 53.94 56.34 6 56 C0 6 0 6 0 0 Z " fill="#DDDEDE" transform="translate(112,94)"/>
<path d="M0 0 C61.05 0 122.1 0 185 0 C183.2065001 22.11983205 181.40560282 44.23278046 179.43817139 66.33691406 C179.11505056 69.96995599 178.79308804 73.60309951 178.47140503 77.236269 C176.18959518 103.00271631 173.85889116 128.76460863 171.49267578 154.5234375 C170.9729736 160.18217208 170.45452741 165.84102039 169.9375 171.5 C169.8532074 172.42256592 169.76891479 173.34513184 169.68206787 174.2956543 C168.50072622 187.24906695 167.38292748 200.20633681 166.32247925 213.17016602 C165.21166954 226.73197492 163.98494987 240.28197139 162.73974609 253.83203125 C161.60274025 266.21704411 160.51343447 278.60427261 159.5 291 C158.33310722 305.27273812 157.05574224 319.53375497 155.74276733 333.79376221 C154.39028956 348.49233381 153.12231229 363.19599321 151.95117188 377.91015625 C151.83854336 379.30208347 151.72591325 380.69401056 151.61328125 382.0859375 C151.51829346 383.2826709 151.42330566 384.4794043 151.32543945 385.71240234 C151.01559977 388.84241076 150.55639875 391.90523426 150 395 C138.28247883 398.81886824 126.36371051 401.90408022 114.45947266 405.07666016 C108.97044459 406.54169221 103.48535906 408.02130184 98 409.5 C95.83335378 410.08340929 93.66668707 410.66674247 91.5 411.25 C90.4275 411.53875 89.355 411.8275 88.25 412.125 C76.33333333 415.33333333 64.41666667 418.54166667 52.5 421.75 C51.42596924 422.0392334 50.35193848 422.3284668 49.24536133 422.62646484 C47.09430159 423.20545317 44.94309872 423.78391002 42.79174805 424.36181641 C37.13496311 425.88213906 31.48148622 427.41358104 25.83203125 428.9609375 C24.65705078 429.28126953 23.48207031 429.60160156 22.27148438 429.93164062 C20.02575862 430.54411129 17.78090981 431.15980993 15.53710938 431.77929688 C14.52068359 432.05580078 13.50425781 432.33230469 12.45703125 432.6171875 C11.56991455 432.86065918 10.68279785 433.10413086 9.76879883 433.35498047 C6.5528002 434.10417969 3.26892455 434.53301078 0 435 C0 416.19 0 397.38 0 378 C8.33701604 375.22099465 16.48220337 372.51292898 24.91015625 370.15234375 C30.07699893 368.70510391 35.22490176 367.19302086 40.375 365.6875 C41.40294678 365.38730957 42.43089355 365.08711914 43.48999023 364.77783203 C45.60632075 364.15979874 47.72261269 363.54163336 49.83886719 362.92333984 C54.89212153 361.44732749 59.94609406 359.97377937 65 358.5 C65.97904297 358.21439209 66.95808594 357.92878418 67.96679688 357.63452148 C73.14157509 356.1249284 78.31665791 354.61639019 83.4921875 353.109375 C84.56082031 352.79806641 85.62945312 352.48675781 86.73046875 352.16601562 C88.75641619 351.57584833 90.78245113 350.98598126 92.80859375 350.39648438 C93.73542969 350.12642578 94.66226563 349.85636719 95.6171875 349.578125 C96.51276367 349.31837891 97.40833984 349.05863281 98.33105469 348.79101562 C100.13907672 348.25515838 101.94180726 347.70117345 103.73925781 347.13085938 C104.61163086 346.85564453 105.48400391 346.58042969 106.3828125 346.296875 C107.15254395 346.04776367 107.92227539 345.79865234 108.71533203 345.54199219 C111.21502068 344.94899061 113.4396019 344.96320553 116 345 C116.04323898 344.25566208 116.08647797 343.51132416 116.13102722 342.74443054 C117.38223387 321.55289038 119.13175472 300.4304548 121.08394623 279.2931633 C121.79180617 271.61023525 122.48722561 263.92616401 123.18359375 256.2421875 C123.26095009 255.38993277 123.33830643 254.53767803 123.4180069 253.6595974 C124.50287187 241.69602238 125.54534787 229.72962794 126.53515625 217.7578125 C126.59363802 217.05092222 126.65211979 216.34403194 126.71237373 215.61572075 C127.31272345 208.3490275 127.90403563 201.08162949 128.48950195 193.8137207 C128.63342628 192.04621964 128.63342628 192.04621964 128.78025818 190.24301147 C128.95712716 188.06981928 129.13159736 185.89642986 129.30311584 183.72280884 C129.41966774 182.29465347 129.41966774 182.29465347 129.53857422 180.83764648 C129.63680984 179.6083567 129.63680984 179.6083567 129.73703003 178.35423279 C130.01314621 175.88230885 130.51220086 173.43899572 131 171 C88.43 171 45.86 171 2 171 C5.06872359 168.69845731 7.12013979 167.36361467 10.52246094 165.92895508 C11.87568199 165.35343903 11.87568199 165.35343903 13.25624084 164.76629639 C14.23902512 164.35486389 15.22180939 163.9434314 16.234375 163.51953125 C17.7964695 162.8575473 17.7964695 162.8575473 19.39012146 162.18218994 C22.84135974 160.72071584 26.29570513 159.26673305 29.75 157.8125 C32.77846989 156.53156194 35.80638533 155.24932389 38.83411503 153.96663761 C39.44941295 153.70597224 40.06471087 153.44530687 40.69865417 153.17674255 C41.31871023 152.91404509 41.93876629 152.65134762 42.57761192 152.38068962 C44.48964996 151.57092805 46.40199452 150.76189416 48.31440735 149.95301819 C57.34349794 146.13298088 66.36107938 142.28668025 75.37109375 138.421875 C76.30897547 138.01959214 76.30897547 138.01959214 77.26580429 137.60918236 C81.57344466 135.76123915 85.88053064 133.91200652 90.1875 132.0625 C93.63018323 130.58416395 97.07292728 129.10598533 100.51669312 127.63017273 C102.67021906 126.70499927 104.8218366 125.77536858 106.97134399 124.84089661 C111.85566953 122.72567378 116.73882346 120.69586116 121.73876953 118.86865234 C122.62430008 118.53353134 123.50983063 118.19841034 124.42219543 117.85313416 C126.04998034 117.24256906 127.68898937 116.66071691 129.33988953 116.11573792 C132.59432764 114.87396501 134.4882811 114.06350148 136.03723145 110.84432983 C137.25132106 106.52452239 137.79094058 102.22233852 137.8046875 97.734375 C137.96328385 90.42107286 138.68444642 83.20481732 139.4128418 75.93139648 C139.62320793 73.76842592 139.81584209 71.60463572 140.00195312 69.43945312 C140.0610788 68.76203064 140.12020447 68.08460815 140.18112183 67.38665771 C140.34220501 65.52974498 140.50053323 63.67259385 140.65869141 61.81542969 C141 59 141 59 142 57 C95.14 57 48.28 57 0 57 C0 38.19 0 19.38 0 0 Z " fill="#3C9BD6" transform="translate(256,37)"/>
<path d="M0 0 C43.23 0 86.46 0 131 0 C128.70220366 32.1691487 128.70220366 32.1691487 127.66796875 43.82421875 C127.54969505 45.17618163 127.43161974 46.52816187 127.3137207 47.88015747 C127.06708156 50.70371859 126.81910179 53.52715691 126.56991577 56.35049438 C126.17675674 60.80531056 125.78709304 65.26042904 125.39770508 69.71557617 C124.23521255 83.00589367 123.06327939 96.29537448 121.88676453 109.5844574 C121.42737252 114.77380282 120.96946391 119.96327918 120.51138306 125.15274048 C120.19642915 128.71160393 119.87897224 132.27023759 119.5612793 135.82885742 C118.64023962 146.21289584 117.76790511 156.58262998 117.23950195 166.99487305 C117.04202867 169.47264947 116.7093441 171.62832502 116 174 C115.195625 174.20753906 114.39125 174.41507813 113.5625 174.62890625 C102.36016123 177.56460687 91.25504802 180.81121837 80.14501953 184.07666016 C75.09874332 185.55818605 70.04926346 187.02869418 65 188.5 C62.99998358 189.08327704 60.99998361 189.66661046 59 190.25 C47 193.75 47 193.75 43.99462891 194.62646484 C42.01245948 195.20466493 40.03036204 195.78311183 38.04833984 196.36181641 C32.7761232 197.90081355 27.50240011 199.43439551 22.2265625 200.9609375 C21.12183594 201.28126953 20.01710938 201.60160156 18.87890625 201.93164062 C16.74915091 202.5490907 14.61895849 203.16503563 12.48828125 203.77929688 C11.53566406 204.05580078 10.58304688 204.33230469 9.6015625 204.6171875 C8.75932129 204.86065918 7.91708008 205.10413086 7.04931641 205.35498047 C4.96478355 205.95175408 4.96478355 205.95175408 3 207 C-3.37148198 206.90757366 -9.34677672 205.21869096 -15.375 203.3125 C-16.23569092 203.04775879 -17.09638184 202.78301758 -17.9831543 202.51025391 C-23.13867753 200.91822457 -28.27839952 199.27653253 -33.41918945 197.63769531 C-34.20898193 197.38600586 -34.99877441 197.13431641 -35.8125 196.875 C-36.60551514 196.62202148 -37.39853027 196.36904297 -38.21557617 196.10839844 C-44.02957578 194.26865486 -49.88208638 192.66075609 -55.78515625 191.12890625 C-68.41514124 187.79995161 -80.94816262 183.99821668 -93.41455078 180.10546875 C-98.06575398 178.67140583 -102.72791147 177.27501185 -107.390625 175.87890625 C-108.31633301 175.60147583 -109.24204102 175.32404541 -110.19580078 175.03820801 C-112.46378879 174.35854321 -114.73185707 173.67914759 -117 173 C-117.05819916 172.32444565 -117.11639832 171.6488913 -117.17636108 170.9528656 C-117.73486062 164.47020159 -118.29345049 157.98754538 -118.8521328 151.50489712 C-119.13909893 148.1750624 -119.42602457 144.8452242 -119.71289062 141.51538086 C-119.93516447 138.93534694 -120.15751528 136.35531965 -120.37994385 133.77529907 C-120.60048437 131.21557719 -120.82065893 128.65582376 -121.04046631 126.09603882 C-121.55321613 120.13350872 -122.07204032 114.17170676 -122.61035156 108.21142578 C-122.70418121 107.16350357 -122.79801086 106.11558136 -122.89468384 105.03590393 C-123.06801158 103.10511697 -123.24374113 101.17454332 -123.42245483 99.24424744 C-123.49912384 98.38642166 -123.57579285 97.52859589 -123.65478516 96.64477539 C-123.72186676 95.91158585 -123.78894836 95.1783963 -123.85806274 94.42298889 C-124.0417664 91.2870123 -124 88.14135261 -124 85 C-104.86 85 -85.72 85 -66 85 C-65.505 90.548125 -65.01 96.09625 -64.5 101.8125 C-64.34337891 103.53960205 -64.18675781 105.2667041 -64.02539062 107.04614258 C-63.31696263 115.04751497 -62.75996208 122.95761827 -63 131 C-62.08863281 131.1043335 -61.17726562 131.20866699 -60.23828125 131.31616211 C-54.79100523 132.09805756 -49.50877052 133.5649391 -44.1875 134.94140625 C-41.8724634 135.5308644 -39.55735709 136.12004879 -37.2421875 136.70898438 C-33.61402544 137.63618681 -29.98657145 138.56596163 -26.36035156 139.50073242 C-22.8462344 140.40498174 -19.32960486 141.29885954 -15.8125 142.19140625 C-14.73315186 142.47262833 -13.65380371 142.7538504 -12.54174805 143.04359436 C-5.29847101 144.87257914 0.88177216 145.96924024 8.15234375 143.609375 C9.08522217 143.31409912 10.01810059 143.01882324 10.97924805 142.71459961 C11.95547119 142.39628174 12.93169434 142.07796387 13.9375 141.75 C21.89543077 139.23620981 29.80941273 136.98513008 37.92578125 135.04296875 C43.8591462 133.57496597 49.69044133 131.7349362 55.52807617 129.92944336 C56.34123291 129.6794458 57.15438965 129.42944824 57.9921875 129.171875 C58.71776855 128.9459668 59.44334961 128.72005859 60.19091797 128.48730469 C62 128 62 128 64 128 C63.99279434 127.32566925 63.98558868 126.6513385 63.97816467 125.95657349 C63.93916796 119.50063809 64.16093315 113.11778258 64.62109375 106.6796875 C64.71741844 105.26527878 64.71741844 105.26527878 64.81568909 103.82229614 C65.0194621 100.83961118 65.22825369 97.8573055 65.4375 94.875 C65.64214779 91.91405552 65.845709 88.95303929 66.04859924 85.99197388 C66.17425811 84.16284751 66.30103566 82.33379739 66.42930603 80.50485229 C67.01928871 72.00579348 67.49960175 63.5067702 68 55 C45.56 55 23.12 55 0 55 C0 36.85 0 18.7 0 0 Z " fill="#F8F8F8" transform="translate(256,208)"/>
<path d="M0 0 C19.14 0 38.28 0 58 0 C58.495 5.548125 58.99 11.09625 59.5 16.8125 C59.65662109 18.53960205 59.81324219 20.2667041 59.97460938 22.04614258 C60.68303737 30.04751497 61.24003792 37.95761827 61 46 C61.88824463 46.09982178 62.77648926 46.19964355 63.69165039 46.30249023 C69.53355724 47.14143356 75.21920684 48.71287255 80.93359375 50.16015625 C82.02740356 50.43436401 83.12121338 50.70857178 84.24816895 50.99108887 C88.31225371 52.0110177 92.37478669 53.03712184 96.4375 54.0625 C105.533125 56.351875 114.62875 58.64125 124 61 C124 81.13 124 101.26 124 122 C120.32733009 121.38788835 117.18642916 120.85617272 113.70703125 119.80078125 C112.92158936 119.56407715 112.13614746 119.32737305 111.3269043 119.08349609 C110.49715088 118.82906738 109.66739746 118.57463867 108.8125 118.3125 C107.50116089 117.91538818 107.50116089 117.91538818 106.16333008 117.51025391 C100.15484793 115.68282908 94.16959976 113.78662844 88.1875 111.875 C81.57319303 109.764337 74.93666527 107.87322258 68.21484375 106.12890625 C55.58485876 102.79995161 43.05183738 98.99821668 30.58544922 95.10546875 C25.93424602 93.67140583 21.27208853 92.27501185 16.609375 90.87890625 C15.68366699 90.60147583 14.75795898 90.32404541 13.80419922 90.03820801 C11.53621121 89.35854321 9.26814293 88.67914759 7 88 C6.94180084 87.32444565 6.88360168 86.6488913 6.82363892 85.9528656 C6.26513938 79.47020159 5.70654951 72.98754538 5.1478672 66.50489712 C4.86090107 63.1750624 4.57397543 59.8452242 4.28710938 56.51538086 C4.06483553 53.93534694 3.84248472 51.35531965 3.62005615 48.77529907 C3.39951563 46.21557719 3.17934107 43.65582376 2.95953369 41.09603882 C2.44678387 35.13350872 1.92795968 29.17170676 1.38964844 23.21142578 C1.29581879 22.16350357 1.20198914 21.11558136 1.10531616 20.03590393 C0.93198842 18.10511697 0.75625887 16.17454332 0.57754517 14.24424744 C0.50087616 13.38642166 0.42420715 12.52859589 0.34521484 11.64477539 C0.24459244 10.54499107 0.24459244 10.54499107 0.14193726 9.42298889 C-0.0417664 6.2870123 0 3.14135261 0 0 Z " fill="#E0E0DF" transform="translate(132,293)"/>
<path d="M0 0 C46.86 0 93.72 0 142 0 C138 44 138 44 136 56 C119.30138549 56.02316735 102.60277763 56.04100406 85.90415096 56.05181217 C78.15036916 56.05696436 70.39659753 56.06398654 62.64282227 56.07543945 C55.88317167 56.08541919 49.12352844 56.09186126 42.36387068 56.09408849 C38.78603265 56.09539001 35.20821571 56.09844046 31.63038445 56.10573006 C27.63240505 56.1138093 23.63446214 56.11398902 19.63647461 56.11352539 C17.8648571 56.1189183 17.8648571 56.1189183 16.05744934 56.12442017 C14.41487656 56.12235817 14.41487656 56.12235817 12.73912048 56.12025452 C11.79428267 56.12117631 10.84944487 56.1220981 9.87597561 56.12304783 C6.56579583 55.98142269 3.27990867 55.46855838 0 55 C0 36.85 0 18.7 0 0 Z " fill="#F8F8F8" transform="translate(256,94)"/>
<path d="M0 0 C0.96381844 0.00699732 1.92763687 0.01399464 2.92066193 0.02120399 C4.57393745 0.02959549 4.57393745 0.02959549 6.26061249 0.03815651 C7.48039291 0.04953148 8.70017334 0.06090645 9.95691681 0.07262611 C11.23317429 0.08062737 12.50943176 0.08862862 13.82436371 0.09687233 C17.33463619 0.11912487 20.84482998 0.14778563 24.35504341 0.17782736 C28.02077423 0.20840977 31.68653996 0.23408195 35.35230255 0.26052284 C41.5094394 0.30575828 47.66653163 0.35524276 53.82361603 0.40709877 C60.95187971 0.46707103 68.08016986 0.51984371 75.2085166 0.56886709 C81.31808634 0.61106915 87.4276181 0.65712398 93.53713465 0.70643198 C97.1907585 0.73591679 100.84437951 0.76404978 104.49803925 0.78873253 C108.56902771 0.81649219 112.63990539 0.85233167 116.71082306 0.88903236 C117.93060349 0.89635887 119.15038391 0.90368538 120.40712738 0.9112339 C121.50931107 0.92246788 122.61149475 0.93370186 123.74707794 0.94527626 C124.71089638 0.95302763 125.67471481 0.960779 126.66773987 0.96876526 C128.83386993 1.11022377 128.83386993 1.11022377 129.83386993 2.11022377 C129.83386993 19.93022377 129.83386993 37.75022377 129.83386993 56.11022377 C87.59386993 56.11022377 45.35386993 56.11022377 1.83386993 56.11022377 C0.67735404 53.79719199 0.56600665 52.13249473 0.35315704 49.55626869 C0.27314957 48.61156212 0.19314209 47.66685555 0.11071014 46.6935215 C0.02837631 45.66958794 -0.05395752 44.64565437 -0.13878632 43.59069252 C-0.22615555 42.53997063 -0.31352478 41.48924873 -0.40354156 40.40668678 C-0.58783693 38.1800159 -0.77011743 35.95317748 -0.95055389 33.72619057 C-1.22666971 30.32189344 -1.50934138 26.91818974 -1.79308319 23.51452065 C-1.97120709 21.35244333 -2.14895379 19.19033489 -2.32628632 17.02819252 C-2.41064438 16.01033165 -2.49500244 14.99247078 -2.58191681 13.94376564 C-2.65877213 12.98960258 -2.73562744 12.03543953 -2.81481171 11.05236244 C-2.88285507 10.21678307 -2.95089844 9.38120369 -3.02100372 8.52030373 C-3.17057055 6.03648159 -3.2593421 3.59744411 -3.16613007 1.11022377 C-2.16613007 0.11022377 -2.16613007 0.11022377 0 0 Z " fill="#E1E0DF" transform="translate(126.16613006591797,206.8897762298584)"/>
<path d="M0 0 C22.44 0 44.88 0 68 0 C68 19.54820594 68 19.54820594 67.37890625 28.1171875 C67.31468979 29.065867 67.25047333 30.01454651 67.18431091 30.99197388 C66.9824044 33.95338129 66.77249408 36.91415647 66.5625 39.875 C66.42593242 41.87236172 66.2898624 43.86975752 66.15429688 45.8671875 C65.53257785 54.9223004 64.85019722 63.96303585 64 73 C50.23658293 77.57826763 36.38215886 81.60708424 22.34521484 85.24609375 C16.40090106 86.7931466 10.53816525 88.37500064 4.76293945 90.47558594 C3 91 3 91 0 91 C0 60.97 0 30.94 0 0 Z " fill="#3C9CD7" transform="translate(256,263)"/>
</svg>
