<svg xmlns="http://www.w3.org/2000/svg" xmlns:xlink="http://www.w3.org/1999/xlink" width="500" zoomAndPan="magnify" viewBox="0 0 375 374.999991" height="500" preserveAspectRatio="xMidYMid meet" version="1.0"><defs><clipPath id="0e6d1fce61"><path d="M 85 22.753906 L 337.335938 22.753906 L 337.335938 352 L 85 352 Z M 85 22.753906 " clip-rule="nonzero"/></clipPath><clipPath id="df242edc29"><path d="M 238 22.753906 L 337.335938 22.753906 L 337.335938 122 L 238 122 Z M 238 22.753906 " clip-rule="nonzero"/></clipPath><clipPath id="eaa925e15e"><path d="M 29.835938 162 L 275 162 L 275 265 L 29.835938 265 Z M 29.835938 162 " clip-rule="nonzero"/></clipPath></defs><g clip-path="url(#0e6d1fce61)"><path fill="#0263d1" d="M 127.394531 22.761719 L 238.90625 22.761719 L 337.375 121.191406 L 337.375 310.242188 C 337.375 333.214844 318.570312 351.996094 295.609375 351.996094 L 127.394531 351.996094 C 104.433594 351.996094 85.628906 333.21875 85.628906 310.242188 L 85.628906 64.496094 C 85.628906 41.542969 104.433594 22.761719 127.394531 22.761719 Z M 127.394531 22.761719 " fill-opacity="1" fill-rule="evenodd"/></g><g clip-path="url(#df242edc29)"><path fill="#014fa7" d="M 238.90625 22.761719 L 337.375 121.191406 L 249.519531 121.191406 C 243.683594 121.191406 238.90625 116.414062 238.90625 110.578125 Z M 238.90625 22.761719 " fill-opacity="1" fill-rule="evenodd"/></g><g clip-path="url(#eaa925e15e)"><path fill="#014fa7" d="M 39.03125 162.945312 L 265.820312 162.945312 C 270.863281 162.945312 274.984375 167.066406 274.984375 172.109375 L 274.984375 255.296875 C 274.984375 260.339844 270.863281 264.480469 265.820312 264.480469 L 39.03125 264.480469 C 33.988281 264.480469 29.863281 260.339844 29.863281 255.296875 L 29.863281 172.109375 C 29.863281 167.066406 33.988281 162.945312 39.03125 162.945312 Z M 39.03125 162.945312 " fill-opacity="1" fill-rule="evenodd"/></g><path fill="#ffffff" d="M 84.058594 202.347656 L 84.058594 225.078125 C 84.058594 231.578125 89.347656 236.867188 95.847656 236.867188 C 102.351562 236.867188 107.640625 231.578125 107.640625 225.078125 C 107.640625 222.140625 110.019531 219.761719 112.957031 219.761719 C 115.890625 219.761719 118.273438 222.140625 118.273438 225.078125 C 118.273438 237.441406 108.214844 247.496094 95.847656 247.496094 C 83.484375 247.496094 73.425781 237.441406 73.425781 225.078125 L 73.425781 202.347656 C 73.425781 189.984375 83.484375 179.929688 95.847656 179.929688 C 108.214844 179.929688 118.273438 189.984375 118.273438 202.347656 C 118.273438 205.285156 115.890625 207.664062 112.957031 207.664062 C 110.019531 207.664062 107.640625 205.285156 107.640625 202.347656 C 107.640625 195.847656 102.351562 190.558594 95.847656 190.558594 C 89.347656 190.558594 84.058594 195.847656 84.058594 202.347656 Z M 150.335938 190.558594 L 158.804688 190.558594 C 162.222656 190.558594 165.007812 193.339844 165.007812 196.761719 C 165.007812 199.695312 167.386719 202.074219 170.324219 202.074219 C 173.261719 202.074219 175.640625 199.695312 175.640625 196.761719 C 175.640625 187.480469 168.089844 179.929688 158.804688 179.929688 L 150.335938 179.929688 C 139.558594 179.929688 130.789062 188.695312 130.789062 199.46875 C 130.789062 209.003906 135.683594 213.65625 139.789062 215.878906 C 145.003906 218.703125 151.582031 219.027344 156.078125 219.027344 C 161 219.027344 165.007812 223.023438 165.007812 227.9375 C 165.007812 232.859375 161 236.867188 156.078125 236.867188 L 147.625 236.867188 C 144.207031 236.867188 141.425781 234.085938 141.425781 230.664062 C 141.425781 227.730469 139.042969 225.351562 136.109375 225.351562 C 133.171875 225.351562 130.792969 227.730469 130.792969 230.664062 C 130.792969 239.945312 138.34375 247.496094 147.625 247.496094 L 156.078125 247.496094 C 166.863281 247.496094 175.640625 238.722656 175.640625 227.9375 C 175.640625 217.160156 166.863281 208.398438 156.078125 208.398438 C 142.527344 208.398438 141.425781 204.351562 141.425781 199.46875 C 141.425781 194.554688 145.421875 190.558594 150.335938 190.558594 Z M 211.878906 208.398438 C 198.3125 208.398438 197.207031 204.351562 197.207031 199.46875 C 197.207031 194.554688 201.214844 190.558594 206.140625 190.558594 L 214.589844 190.558594 C 218.007812 190.558594 220.792969 193.339844 220.792969 196.761719 C 220.792969 199.695312 223.171875 202.074219 226.109375 202.074219 C 229.046875 202.074219 231.425781 199.695312 231.425781 196.761719 C 231.425781 187.480469 223.875 179.929688 214.589844 179.929688 L 206.140625 179.929688 C 195.351562 179.929688 186.574219 188.695312 186.574219 199.46875 C 186.574219 209.003906 191.472656 213.65625 195.578125 215.878906 C 200.792969 218.703125 207.378906 219.027344 211.878906 219.027344 C 216.792969 219.027344 220.789062 223.023438 220.789062 227.9375 C 220.789062 232.859375 216.792969 236.867188 211.878906 236.867188 L 203.410156 236.867188 C 199.988281 236.867188 197.207031 234.085938 197.207031 230.664062 C 197.207031 227.730469 194.828125 225.351562 191.890625 225.351562 C 188.953125 225.351562 186.574219 227.730469 186.574219 230.664062 C 186.574219 239.945312 194.125 247.496094 203.410156 247.496094 L 211.878906 247.496094 C 222.65625 247.496094 231.425781 238.722656 231.425781 227.9375 C 231.425781 217.164062 222.65625 208.398438 211.878906 208.398438 Z M 211.878906 208.398438 " fill-opacity="1" fill-rule="nonzero"/></svg>