<?xml version="1.0" encoding="UTF-8"?>
<svg version="1.1" xmlns="http://www.w3.org/2000/svg" width="320" height="320">
<path d="M0 0 C0 9.24 0 18.48 0 28 C5.22384521 27.9685791 5.22384521 27.9685791 10.55322266 27.93652344 C22.05632443 27.87026068 33.55945263 27.82586359 45.06269264 27.79275131 C52.03749963 27.77213989 59.01212561 27.7440468 65.98681641 27.69824219 C72.71711086 27.65406372 79.44717836 27.63086559 86.17762375 27.62049103 C88.74607682 27.61309715 91.31451954 27.59865882 93.88289261 27.57707977 C97.47895853 27.54806635 101.07424613 27.54404331 104.67041016 27.54589844 C105.73352417 27.53151733 106.79663818 27.51713623 107.89196777 27.50231934 C113.74144223 27.53499696 117.50093267 27.85528718 122 32 C125.25421145 36.24734764 125.42815536 40.06203497 125.38768005 45.229599 C125.39575836 46.46697346 125.39575836 46.46697346 125.40399987 47.72934538 C125.41829914 50.49150927 125.4111709 53.25319526 125.40405273 56.01538086 C125.40975527 57.99650966 125.41671907 59.97763517 125.42485046 61.95875549 C125.44280978 67.33890327 125.44160826 72.7188882 125.43590808 78.09905696 C125.43282026 82.58974242 125.43890414 87.08039642 125.44494683 91.57107741 C125.45899953 102.16451762 125.45742452 112.7578772 125.44604492 123.35131836 C125.43456243 134.2821363 125.44863998 145.21270893 125.4754414 156.14349455 C125.49758823 165.52706854 125.50423807 174.91056548 125.49836498 184.29416376 C125.49499185 189.89912544 125.49743426 195.50392984 125.51461601 201.10886955 C125.53006681 206.37928221 125.52615017 211.64933105 125.50731087 216.91972923 C125.50361985 218.85389384 125.50674834 220.78808528 125.51719666 222.72222519 C125.53037321 225.3630434 125.51888901 228.00265131 125.50120544 230.64341736 C125.51081045 231.40850127 125.52041546 232.17358518 125.53031152 232.96185344 C125.45931281 238.11629684 124.22298543 241.01330974 121 245 C116.37082783 249.18798345 110.67480693 248.40014059 104.78393555 248.34057617 C103.65179123 248.34101425 102.51964691 248.34145233 101.35319519 248.34190369 C97.61419379 248.33981507 93.87564175 248.31647973 90.13671875 248.29296875 C87.54311874 248.28737308 84.94951557 248.28310284 82.35591125 248.28010559 C76.22903044 248.2698248 70.10233484 248.24618493 63.97552377 248.21605712 C56.99853795 248.18249529 50.02154433 248.16602265 43.04449785 248.15097082 C28.69623126 248.11963469 14.34815433 248.06462983 0 248 C0 257.24 0 266.48 0 276 C-33.47532987 269.87680976 -66.93521919 263.67413106 -100.38330078 257.40380859 C-106.74962687 256.21046144 -113.1164806 255.01995239 -119.48344231 253.83000183 C-124.44888776 252.90152011 -129.41397965 251.97115881 -134.3789711 251.04025269 C-136.73203796 250.5993884 -139.08523433 250.15921474 -141.4385643 249.71975708 C-144.67800606 249.11463618 -147.91694281 248.50688196 -151.15576172 247.8984375 C-152.1152774 247.71980667 -153.07479309 247.54117584 -154.06338501 247.35713196 C-155.37692963 247.10953377 -155.37692963 247.10953377 -156.7170105 246.85693359 C-157.47652952 246.71468353 -158.23604855 246.57243347 -159.0185833 246.4258728 C-161 246 -161 246 -164 245 C-164 174.38 -164 103.76 -164 31 C-110.96666763 20.62391323 -110.96666763 20.62391323 -87.94921875 16.30859375 C-85.39416738 15.82833428 -82.83913972 15.34794866 -80.28413391 14.8674469 C-74.40097051 13.76144877 -68.51750974 12.65704588 -62.63390237 11.55341154 C-57.25446948 10.5442062 -51.87540978 9.53302297 -46.49643773 8.52136463 C-40.6007896 7.41255266 -34.70494579 6.3047858 -28.80900002 5.19755745 C-26.32850763 4.73167331 -23.8480576 4.26556352 -21.36765099 3.79922295 C-17.95319737 3.15747351 -14.53852369 2.51690912 -11.1237793 1.87670898 C-9.5965197 1.58934372 -9.5965197 1.58934372 -8.03840637 1.2961731 C-6.65937637 1.03801567 -6.65937637 1.03801567 -5.25248718 0.77464294 C-4.4503564 0.62409675 -3.64822561 0.47355055 -2.82178783 0.31844234 C-1 0 -1 0 0 0 Z " fill="#207245" transform="translate(180,22)"/>
<path d="M0 0 C37.29 0 74.58 0 113 0 C113 64.68 113 129.36 113 196 C75.71 196 38.42 196 0 196 C0 190.39 0 184.78 0 179 C13.2 179 26.4 179 40 179 C40 170.75 40 162.5 40 154 C26.8 154 13.6 154 0 154 C0 151.03 0 148.06 0 145 C13.2 145 26.4 145 40 145 C40 136.75 40 128.5 40 120 C26.8 120 13.6 120 0 120 C0 117.03 0 114.06 0 111 C13.2 111 26.4 111 40 111 C40 102.75 40 94.5 40 86 C26.8 86 13.6 86 0 86 C0 83.03 0 80.06 0 77 C13.2 77 26.4 77 40 77 C40 68.42 40 59.84 40 51 C26.8 51 13.6 51 0 51 C0 48.03 0 45.06 0 42 C13.2 42 26.4 42 40 42 C40 33.75 40 25.5 40 17 C26.8 17 13.6 17 0 17 C0 11.39 0 5.78 0 0 Z " fill="#FCFDFD" transform="translate(180,62)"/>
<path d="M0 0 C-1.5019893 5.00973462 -3.62495289 9.44828991 -6.02734375 14.06640625 C-6.41692764 14.82291977 -6.80651154 15.57943329 -7.207901 16.35887146 C-8.02875043 17.95082218 -8.85165984 19.54171223 -9.67651367 21.1315918 C-10.93416214 23.55606532 -12.18538683 25.98376745 -13.43554688 28.41210938 C-14.23660512 29.96373483 -15.03802528 31.51517351 -15.83984375 33.06640625 C-16.21181381 33.78735977 -16.58378387 34.50831329 -16.96702576 35.25111389 C-17.32071732 35.93209641 -17.67440887 36.61307892 -18.03881836 37.31469727 C-18.37017792 37.95504913 -18.70153748 38.595401 -19.04293823 39.25515747 C-20 41 -20 41 -21.82250977 43.68334961 C-23.21872788 45.94179327 -23.21872788 45.94179327 -22.83349609 48.51147461 C-21.9661796 51.10097577 -20.93870126 53.40093456 -19.6640625 55.81640625 C-19.18163086 56.73655518 -18.69919922 57.6567041 -18.20214844 58.60473633 C-17.68168945 59.58079834 -17.16123047 60.55686035 -16.625 61.5625 C-16.09422852 62.57014404 -15.56345703 63.57778809 -15.01660156 64.6159668 C-10.88444322 72.42829044 -6.64298843 80.18020379 -2.30322266 87.87915039 C-1.86800293 88.65766357 -1.4327832 89.43617676 -0.984375 90.23828125 C-0.59991211 90.91930908 -0.21544922 91.60033691 0.18066406 92.30200195 C1 94 1 94 1 96 C-1.16659374 96.02738672 -3.33329175 96.04656832 -5.5 96.0625 C-7.30984375 96.07990234 -7.30984375 96.07990234 -9.15625 96.09765625 C-10.4246875 96.06542969 -11.693125 96.03320312 -13 96 C-13.7024585 96.00193359 -14.40491699 96.00386719 -15.12866211 96.00585938 C-17.24609375 95.91015625 -17.24609375 95.91015625 -21 95 C-22.72396062 92.62099952 -23.57587992 91.04661176 -24.5625 88.375 C-25.12929937 87.01134059 -25.69703642 85.64807061 -26.265625 84.28515625 C-26.68811523 83.22772217 -26.68811523 83.22772217 -27.11914062 82.14892578 C-28.55594656 78.64372462 -30.18988427 75.23457405 -31.8125 71.8125 C-32.38197122 70.59005831 -32.95100945 69.36741478 -33.51953125 68.14453125 C-34.64941419 65.74464795 -35.80797097 63.36898532 -37 61 C-37.2278418 61.58700684 -37.45568359 62.17401367 -37.69042969 62.77880859 C-40.33306878 69.49584497 -43.23782907 76.06652317 -46.25 82.625 C-46.70890625 83.62917969 -47.1678125 84.63335937 -47.640625 85.66796875 C-48.75832823 88.11294456 -49.87814758 90.55692596 -51 93 C-61.44276765 93.09225513 -61.44276765 93.09225513 -66.625 92.5 C-67.46289062 92.4071875 -68.30078125 92.314375 -69.1640625 92.21875 C-69.76992187 92.1465625 -70.37578125 92.074375 -71 92 C-68.86936831 86.46443832 -66.12416377 81.31082664 -63.375 76.0625 C-62.57509644 74.52348022 -62.57509644 74.52348022 -61.7590332 72.95336914 C-59.39751173 68.43822537 -57.02128826 63.95321731 -54.39453125 59.5859375 C-54.01699707 58.95679443 -53.63946289 58.32765137 -53.25048828 57.67944336 C-52.25997707 56.05626985 -51.24609961 54.44741915 -50.23046875 52.83984375 C-48.6599021 49.21507564 -49.04336807 47.83013034 -50 44 C-51.26556464 40.9772394 -52.74960451 38.08181699 -54.25390625 35.171875 C-54.67421616 34.34165833 -55.09452606 33.51144165 -55.52757263 32.65606689 C-56.86496667 30.01677538 -58.21298274 27.38311051 -59.5625 24.75 C-60.91414529 22.1019178 -62.26344052 19.45270323 -63.60813904 16.80108643 C-64.44397763 15.1539582 -65.28408347 13.50898726 -66.12879944 11.86639404 C-66.50596603 11.12512268 -66.88313263 10.38385132 -67.27172852 9.62011719 C-67.60624527 8.96758972 -67.94076202 8.31506226 -68.28541565 7.64276123 C-69 6 -69 6 -69 4 C-62.4 3.67 -55.8 3.34 -49 3 C-44.15381961 13.16515886 -39.9921696 23.47626299 -36 34 C-30.84081641 23.06897977 -25.8773266 12.05949643 -21 1 C-13.97252688 0.33411422 -7.05985273 -0.11766421 0 0 Z " fill="#FBFCFB" transform="translate(128,110)"/>
<path d="M0 0 C14.85 0 29.7 0 45 0 C45 8.25 45 16.5 45 25 C30.15 25 15.3 25 0 25 C0 16.75 0 8.5 0 0 Z " fill="#207245" transform="translate(230,216)"/>
<path d="M0 0 C14.85 0 29.7 0 45 0 C45 8.25 45 16.5 45 25 C30.15 25 15.3 25 0 25 C0 16.75 0 8.5 0 0 Z " fill="#227446" transform="translate(230,182)"/>
<path d="M0 0 C14.85 0 29.7 0 45 0 C45 8.25 45 16.5 45 25 C30.15 25 15.3 25 0 25 C0 16.75 0 8.5 0 0 Z " fill="#1F7244" transform="translate(230,148)"/>
<path d="M0 0 C14.85 0 29.7 0 45 0 C45 8.25 45 16.5 45 25 C30.15 25 15.3 25 0 25 C0 16.75 0 8.5 0 0 Z " fill="#217346" transform="translate(230,113)"/>
<path d="M0 0 C14.85 0 29.7 0 45 0 C45 8.25 45 16.5 45 25 C30.15 25 15.3 25 0 25 C0 16.75 0 8.5 0 0 Z " fill="#207245" transform="translate(230,79)"/>
</svg>
