<svg xmlns="http://www.w3.org/2000/svg" xmlns:xlink="http://www.w3.org/1999/xlink" width="1024" zoomAndPan="magnify" viewBox="0 0 768 767.999994" height="1024" preserveAspectRatio="xMidYMid meet" version="1.0"><defs><clipPath id="38839e7435"><path d="M 114 111.777344 L 654 111.777344 L 654 656.277344 L 114 656.277344 Z M 114 111.777344 " clip-rule="nonzero"/></clipPath></defs><g clip-path="url(#38839e7435)"><path fill="#c96533" d="M 444.957031 272.042969 C 444.957031 248.078125 464.453125 228.582031 488.410156 228.582031 C 512.371094 228.582031 531.867188 248.078125 531.867188 272.042969 C 531.867188 296.003906 512.371094 315.5 488.410156 315.5 C 464.453125 315.5 444.957031 296.003906 444.957031 272.042969 Z M 425.78125 461.390625 C 425.78125 481.316406 409.574219 497.527344 389.648438 497.527344 C 369.71875 497.527344 353.511719 481.316406 353.511719 461.390625 C 353.511719 441.460938 369.71875 425.253906 389.648438 425.253906 C 409.574219 425.253906 425.78125 441.460938 425.78125 461.390625 Z M 340.261719 123.71875 C 367.917969 123.71875 390.417969 146.226562 390.417969 173.886719 C 390.417969 201.542969 367.917969 224.042969 340.261719 224.042969 C 312.601562 224.042969 290.101562 201.542969 290.101562 173.886719 C 290.101562 146.226562 312.601562 123.71875 340.261719 123.71875 Z M 649.210938 263.46875 C 644.699219 256.695312 637.476562 252.222656 629.40625 251.195312 C 621.375 250.183594 613.335938 252.667969 607.332031 258.035156 C 563.550781 297.171875 545.722656 306.679688 527.945312 310.671875 C 537.699219 300.695312 543.722656 287.066406 543.722656 272.042969 C 543.722656 241.546875 518.910156 216.734375 488.410156 216.734375 C 457.914062 216.734375 433.101562 241.546875 433.101562 272.042969 C 433.101562 293.8125 445.742188 312.671875 464.066406 321.691406 C 463.140625 321.898438 462.199219 322.089844 461.28125 322.296875 L 447.003906 325.476562 C 430.707031 329.101562 418.804688 335.085938 411.152344 343.542969 L 409.199219 290.726562 C 408.640625 269.570312 395.710938 250.496094 376.269531 242.140625 L 356.617188 233.695312 C 382.902344 226.496094 402.28125 202.417969 402.28125 173.886719 C 402.28125 139.6875 374.457031 111.863281 340.261719 111.863281 C 306.0625 111.863281 278.246094 139.6875 278.246094 173.886719 C 278.246094 189.195312 283.832031 203.21875 293.0625 214.046875 C 230.359375 192.925781 191.175781 152.027344 172.300781 127.585938 C 166.796875 120.453125 158.460938 115.996094 149.421875 115.34375 C 140.265625 114.65625 131.207031 117.957031 124.601562 124.347656 C 113.90625 134.683594 111.746094 150.847656 119.34375 163.640625 C 136.011719 191.699219 174.226562 244.210938 244.101562 283.453125 L 244.101562 650.203125 C 244.101562 653.476562 246.753906 656.132812 250.027344 656.132812 C 253.300781 656.132812 255.957031 653.476562 255.957031 650.203125 L 255.957031 279.96875 C 255.957031 277.800781 254.777344 275.808594 252.878906 274.769531 C 183.527344 236.707031 145.835938 185.015625 129.542969 157.589844 C 124.761719 149.53125 126.117188 139.367188 132.839844 132.871094 C 137.03125 128.824219 142.765625 126.753906 148.570312 127.164062 C 154.328125 127.585938 159.425781 130.304688 162.917969 134.832031 C 185.433594 163.988281 235.570312 215.539062 318.367188 233.269531 C 327.925781 235.316406 337.613281 238.433594 347.171875 242.546875 L 371.585938 253.035156 C 386.792969 259.574219 396.910156 274.492188 397.351562 291.105469 L 401.921875 414.996094 C 398.003906 413.957031 393.890625 413.398438 389.648438 413.398438 C 363.179688 413.398438 341.648438 434.929688 341.648438 461.390625 C 341.648438 471.308594 344.671875 480.53125 349.851562 488.1875 C 333.121094 479.917969 320.347656 467.453125 311.355469 456.265625 C 306.242188 449.90625 298.671875 445.902344 290.582031 445.28125 C 282.402344 444.65625 274.59375 447.355469 268.546875 452.878906 C 257.25 463.203125 255.671875 480.132812 264.890625 492.253906 C 279.75 511.808594 302.003906 536.117188 325.699219 544.394531 L 323.359375 646.484375 C 323.285156 649.757812 325.878906 652.46875 329.152344 652.542969 C 329.199219 652.546875 329.242188 652.546875 329.289062 652.546875 C 332.496094 652.546875 335.140625 649.984375 335.207031 646.757812 L 337.65625 540.175781 C 337.714844 537.421875 335.875 534.988281 333.210938 534.296875 C 309.960938 528.296875 286.335938 500.886719 274.328125 485.082031 C 268.847656 477.871094 269.800781 467.789062 276.546875 461.628906 C 280.152344 458.335938 284.789062 456.738281 289.675781 457.105469 C 294.582031 457.476562 299 459.816406 302.113281 463.6875 C 318.855469 484.535156 347.636719 509.382812 389.648438 509.382812 C 431.65625 509.382812 460.433594 484.535156 477.179688 463.6875 C 480.289062 459.816406 484.707031 457.476562 489.617188 457.105469 C 494.503906 456.738281 499.136719 458.335938 502.746094 461.628906 C 509.484375 467.789062 510.4375 477.871094 504.960938 485.082031 C 492.945312 500.886719 469.316406 528.296875 446.078125 534.296875 C 443.417969 534.988281 441.570312 537.421875 441.636719 540.175781 L 444.078125 646.757812 C 444.152344 649.984375 446.789062 652.546875 450.003906 652.546875 C 450.050781 652.546875 450.097656 652.546875 450.136719 652.542969 C 453.414062 652.46875 456.007812 649.757812 455.925781 646.484375 L 453.59375 544.394531 C 477.28125 536.117188 499.535156 511.808594 514.402344 492.253906 C 523.613281 480.132812 522.042969 463.203125 510.746094 452.878906 C 504.695312 447.347656 496.871094 444.65625 488.710938 445.28125 C 480.613281 445.902344 473.042969 449.90625 467.929688 456.265625 C 458.945312 467.453125 446.164062 479.917969 429.441406 488.1875 C 434.613281 480.53125 437.640625 471.308594 437.640625 461.390625 C 437.640625 443.773438 428.089844 428.351562 413.90625 420.003906 C 413.941406 419.714844 413.960938 419.421875 413.945312 419.117188 L 412.359375 376.15625 C 412.554688 375.542969 412.652344 374.886719 412.640625 374.207031 C 412.09375 354.039062 423.144531 342.929688 449.582031 337.046875 L 463.859375 333.867188 C 477.949219 330.734375 493.457031 327.96875 511.265625 325.402344 L 514.710938 324.914062 C 541.054688 321.203125 556.957031 318.964844 615.234375 266.878906 C 618.675781 263.800781 623.304688 262.402344 627.90625 262.953125 C 632.570312 263.554688 636.742188 266.132812 639.347656 270.046875 C 644.171875 277.28125 641.269531 285.558594 636.941406 290.898438 C 613.6875 319.558594 566.636719 357.253906 531.167969 368.191406 C 528.6875 368.957031 526.988281 371.257812 526.988281 373.855469 L 526.988281 427.265625 C 526.988281 428.292969 527.253906 429.304688 527.761719 430.191406 C 528.082031 430.753906 558.589844 485.222656 572.28125 566.472656 L 521.941406 566.472656 C 518.667969 566.472656 516.015625 569.125 516.015625 572.398438 L 516.015625 646.617188 C 516.015625 649.890625 518.667969 652.546875 521.941406 652.546875 C 525.214844 652.546875 527.875 649.890625 527.875 646.617188 L 527.875 578.328125 L 579.238281 578.328125 C 580.972656 578.328125 582.613281 577.570312 583.738281 576.265625 C 584.863281 574.945312 585.363281 573.203125 585.097656 571.5 C 572.652344 490.570312 544.050781 435.296875 538.84375 425.742188 L 538.84375 378.140625 C 576.246094 364.976562 622.167969 327.921875 646.144531 298.363281 C 654.929688 287.539062 656.128906 273.84375 649.210938 263.46875 " fill-opacity="1" fill-rule="nonzero"/></g></svg>