<svg xmlns="http://www.w3.org/2000/svg" xmlns:xlink="http://www.w3.org/1999/xlink" width="500" zoomAndPan="magnify" viewBox="0 0 375 374.999991" height="500" preserveAspectRatio="xMidYMid meet" version="1.0"><defs><clipPath id="cf6a4822af"><path d="M 85 22.785156 L 337.394531 22.785156 L 337.394531 352.035156 L 85 352.035156 Z M 85 22.785156 " clip-rule="nonzero"/></clipPath><clipPath id="be5270f87e"><path d="M 238 22.785156 L 337.394531 22.785156 L 337.394531 122 L 238 122 Z M 238 22.785156 " clip-rule="nonzero"/></clipPath><clipPath id="ed7efdd809"><path d="M 29.894531 162 L 276 162 L 276 265 L 29.894531 265 Z M 29.894531 162 " clip-rule="nonzero"/></clipPath></defs><g clip-path="url(#cf6a4822af)"><path fill="#ff6600" d="M 127.449219 22.789062 L 238.960938 22.789062 L 337.429688 121.21875 L 337.429688 310.273438 C 337.429688 333.25 318.628906 352.03125 295.667969 352.03125 L 127.449219 352.03125 C 104.488281 352.03125 85.6875 333.25 85.6875 310.273438 L 85.6875 64.523438 C 85.6875 41.570312 104.488281 22.789062 127.449219 22.789062 Z M 127.449219 22.789062 " fill-opacity="1" fill-rule="evenodd"/></g><g clip-path="url(#be5270f87e)"><path fill="#cc5100" d="M 238.960938 22.789062 L 337.429688 121.21875 L 249.59375 121.21875 C 243.742188 121.21875 238.960938 116.441406 238.960938 110.609375 Z M 238.960938 22.789062 " fill-opacity="1" fill-rule="evenodd"/></g><g clip-path="url(#ed7efdd809)"><path fill="#cc5100" d="M 39.085938 162.976562 L 265.894531 162.976562 C 270.9375 162.976562 275.058594 167.097656 275.058594 172.140625 L 275.058594 255.328125 C 275.058594 260.371094 270.9375 264.511719 265.894531 264.511719 L 39.085938 264.511719 C 34.042969 264.511719 29.921875 260.371094 29.921875 255.328125 L 29.921875 172.140625 C 29.921875 167.097656 34.042969 162.976562 39.085938 162.976562 Z M 39.085938 162.976562 " fill-opacity="1" fill-rule="evenodd"/></g><path fill="#ffffff" d="M 92.152344 185.273438 L 92.152344 242.214844 C 92.152344 245.148438 89.769531 247.53125 86.835938 247.53125 C 83.898438 247.53125 81.519531 245.148438 81.519531 242.214844 L 81.519531 219.058594 L 57.9375 219.058594 L 57.9375 242.214844 C 57.9375 245.148438 55.554688 247.53125 52.617188 247.53125 C 49.683594 247.53125 47.300781 245.148438 47.300781 242.214844 L 47.300781 185.273438 C 47.300781 182.335938 49.683594 179.957031 52.617188 179.957031 C 55.554688 179.957031 57.9375 182.335938 57.9375 185.273438 L 57.9375 208.429688 L 81.519531 208.429688 L 81.519531 185.273438 C 81.519531 182.335938 83.898438 179.957031 86.835938 179.957031 C 89.769531 179.957031 92.152344 182.335938 92.152344 185.273438 Z M 139.777344 179.957031 L 105.542969 179.957031 C 102.605469 179.957031 100.226562 182.335938 100.226562 185.273438 C 100.226562 188.207031 102.605469 190.589844 105.542969 190.589844 L 117.332031 190.589844 L 117.332031 242.214844 C 117.332031 245.152344 119.714844 247.53125 122.648438 247.53125 C 125.585938 247.53125 127.964844 245.152344 127.964844 242.214844 L 127.964844 190.589844 L 139.777344 190.589844 C 142.714844 190.589844 145.09375 188.210938 145.09375 185.273438 C 145.09375 182.335938 142.714844 179.957031 139.777344 179.957031 Z M 202.425781 182.820312 C 202.09375 182.179688 201.625 181.597656 201.027344 181.125 C 200.542969 180.734375 199.984375 180.425781 199.378906 180.226562 C 198.71875 180.007812 198.035156 179.925781 197.359375 179.96875 C 196.589844 180.019531 195.867188 180.230469 195.222656 180.574219 C 194.59375 180.90625 194.023438 181.367188 193.558594 181.949219 C 193.46875 182.058594 193.386719 182.171875 193.308594 182.285156 L 177.777344 204.472656 L 162.261719 182.289062 C 162.183594 182.171875 162.097656 182.058594 162.007812 181.949219 C 161.53125 181.351562 160.945312 180.882812 160.300781 180.550781 C 159.667969 180.222656 158.960938 180.019531 158.214844 179.972656 C 157.570312 179.925781 156.917969 180 156.289062 180.195312 C 155.644531 180.394531 155.054688 180.710938 154.542969 181.125 C 153.945312 181.601562 153.476562 182.183594 153.144531 182.824219 C 152.8125 183.460938 152.605469 184.171875 152.554688 184.921875 C 152.546875 185.066406 152.542969 185.207031 152.542969 185.351562 L 152.542969 242.214844 C 152.542969 245.152344 154.925781 247.53125 157.863281 247.53125 C 160.796875 247.53125 163.179688 245.152344 163.179688 242.214844 L 163.179688 202.152344 L 173.417969 216.792969 C 174.410156 218.214844 176.039062 219.058594 177.773438 219.0625 C 179.507812 219.0625 181.136719 218.214844 182.128906 216.792969 L 192.386719 202.140625 L 192.386719 242.214844 C 192.386719 245.152344 194.769531 247.53125 197.703125 247.53125 C 200.640625 247.53125 203.019531 245.152344 203.019531 242.214844 L 203.019531 185.351562 C 203.023438 185.210938 203.019531 185.066406 203.011719 184.929688 C 202.964844 184.171875 202.757812 183.457031 202.425781 182.820312 Z M 252.34375 236.898438 L 223.445312 236.898438 L 223.445312 185.273438 C 223.445312 182.335938 221.0625 179.957031 218.125 179.957031 C 215.191406 179.957031 212.808594 182.335938 212.808594 185.273438 L 212.808594 242.214844 C 212.808594 245.148438 215.191406 247.53125 218.125 247.53125 L 252.34375 247.53125 C 255.28125 247.53125 257.660156 245.148438 257.660156 242.214844 C 257.660156 239.277344 255.28125 236.898438 252.34375 236.898438 Z M 252.34375 236.898438 " fill-opacity="1" fill-rule="nonzero"/></svg>