<svg xmlns="http://www.w3.org/2000/svg" xmlns:xlink="http://www.w3.org/1999/xlink" width="500" zoomAndPan="magnify" viewBox="0 0 375 374.999991" height="500" preserveAspectRatio="xMidYMid meet" version="1.0"><defs><clipPath id="9741a562da"><path d="M 41.957031 22 L 332.957031 22 L 332.957031 353 L 41.957031 353 Z M 41.957031 22 " clip-rule="nonzero"/></clipPath></defs><g clip-path="url(#9741a562da)"><path fill="#e44d26" d="M 68.375 319.734375 L 41.875 22.351562 L 333.039062 22.351562 L 306.519531 319.691406 L 187.269531 352.753906 Z M 68.375 319.734375 " fill-opacity="1" fill-rule="nonzero"/></g><path fill="#f16529" d="M 283.804688 300.753906 L 306.476562 46.667969 L 187.457031 46.667969 L 187.457031 327.488281 Z M 283.804688 300.753906 " fill-opacity="1" fill-rule="nonzero"/><path fill="#ebebeb" d="M 187.332031 83.136719 L 96.050781 83.136719 L 105.882812 193.433594 L 187.457031 193.433594 L 187.457031 156.964844 L 139.226562 156.964844 L 135.890625 119.617188 L 187.457031 119.617188 L 187.457031 83.136719 Z M 187.457031 251.566406 L 187.300781 251.605469 L 146.707031 240.640625 L 144.125 211.554688 L 107.515625 211.554688 L 112.621094 268.820312 L 187.292969 289.46875 L 187.457031 289.417969 Z M 187.457031 251.566406 " fill-opacity="1" fill-rule="nonzero"/><path fill="#ffffff" d="M 187.332031 193.433594 L 232.222656 193.433594 L 228.09375 240.722656 L 187.4375 251.699219 L 187.4375 289.644531 L 262.167969 268.921875 L 272.175781 156.945312 L 187.457031 156.945312 Z M 277.769531 92.925781 L 278.636719 83.136719 L 187.3125 83.136719 L 187.3125 119.609375 L 275.355469 119.609375 L 276.078125 111.410156 Z M 277.769531 92.925781 " fill-opacity="1" fill-rule="nonzero"/></svg>