<svg xmlns="http://www.w3.org/2000/svg" xmlns:xlink="http://www.w3.org/1999/xlink" width="500" zoomAndPan="magnify" viewBox="0 0 375 374.999991" height="500" preserveAspectRatio="xMidYMid meet" version="1.0"><defs><clipPath id="b3ae2f3886"><path d="M 85 22.894531 L 337.597656 22.894531 L 337.597656 352.144531 L 85 352.144531 Z M 85 22.894531 " clip-rule="nonzero"/></clipPath><clipPath id="8942cccd7a"><path d="M 239 22.894531 L 337.597656 22.894531 L 337.597656 122 L 239 122 Z M 239 22.894531 " clip-rule="nonzero"/></clipPath><clipPath id="52cfda2e76"><path d="M 30.097656 163 L 276 163 L 276 265 L 30.097656 265 Z M 30.097656 163 " clip-rule="nonzero"/></clipPath></defs><g clip-path="url(#b3ae2f3886)"><path fill="#ffb11f" d="M 127.652344 22.898438 L 239.164062 22.898438 L 337.632812 121.328125 L 337.632812 310.382812 C 337.632812 333.359375 318.832031 352.136719 295.871094 352.136719 L 127.652344 352.136719 C 104.691406 352.136719 85.890625 333.359375 85.890625 310.382812 L 85.890625 64.636719 C 85.890625 41.679688 104.691406 22.898438 127.652344 22.898438 Z M 127.652344 22.898438 " fill-opacity="1" fill-rule="evenodd"/></g><g clip-path="url(#8942cccd7a)"><path fill="#cc8e18" d="M 239.164062 22.898438 L 337.632812 121.328125 L 249.796875 121.328125 C 243.945312 121.328125 239.164062 116.550781 239.164062 110.71875 Z M 239.164062 22.898438 " fill-opacity="1" fill-rule="evenodd"/></g><g clip-path="url(#52cfda2e76)"><path fill="#cc8e18" d="M 39.289062 163.085938 L 266.078125 163.085938 C 271.121094 163.085938 275.261719 167.207031 275.261719 172.25 L 275.261719 255.4375 C 275.261719 260.480469 271.121094 264.621094 266.078125 264.621094 L 39.289062 264.621094 C 34.246094 264.621094 30.125 260.480469 30.125 255.4375 L 30.125 172.25 C 30.125 167.207031 34.246094 163.085938 39.289062 163.085938 Z M 39.289062 163.085938 " fill-opacity="1" fill-rule="evenodd"/></g><path fill="#ffffff" d="M 205.316406 228.078125 C 205.316406 238.863281 196.546875 247.640625 185.769531 247.640625 L 177.300781 247.640625 C 168.019531 247.640625 160.464844 240.089844 160.464844 230.804688 C 160.464844 227.871094 162.847656 225.492188 165.785156 225.492188 C 168.71875 225.492188 171.101562 227.871094 171.101562 230.804688 C 171.101562 234.226562 173.882812 237.007812 177.300781 237.007812 L 185.769531 237.007812 C 190.683594 237.007812 194.683594 233 194.683594 228.078125 C 194.683594 223.164062 190.683594 219.167969 185.769531 219.167969 C 181.269531 219.167969 174.683594 218.84375 169.46875 216.019531 C 165.363281 213.796875 160.464844 209.144531 160.464844 199.609375 C 160.464844 188.832031 169.234375 180.066406 180.011719 180.066406 L 188.480469 180.066406 C 197.761719 180.066406 205.316406 187.617188 205.316406 196.898438 C 205.316406 199.835938 202.933594 202.214844 200 202.214844 C 197.0625 202.214844 194.683594 199.835938 194.683594 196.898438 C 194.683594 193.480469 191.898438 190.699219 188.480469 190.699219 L 180.011719 190.699219 C 175.097656 190.699219 171.101562 194.695312 171.101562 199.609375 C 171.101562 204.492188 172.203125 208.539062 185.769531 208.539062 C 196.546875 208.535156 205.316406 217.300781 205.316406 228.078125 Z M 138.644531 180.066406 C 135.707031 180.066406 133.328125 182.445312 133.328125 185.382812 L 133.328125 225.21875 C 133.328125 231.71875 128.039062 237.007812 121.535156 237.007812 C 116.53125 237.007812 112.050781 233.808594 110.386719 229.054688 C 109.417969 226.28125 106.386719 224.816406 103.617188 225.789062 C 100.84375 226.753906 99.382812 229.789062 100.351562 232.558594 C 103.5 241.578125 112.015625 247.636719 121.535156 247.636719 C 133.902344 247.636719 143.960938 237.582031 143.960938 225.21875 L 143.960938 185.382812 C 143.960938 182.445312 141.582031 180.066406 138.644531 180.066406 Z M 138.644531 180.066406 " fill-opacity="1" fill-rule="nonzero"/></svg>