<svg xmlns="http://www.w3.org/2000/svg" xmlns:xlink="http://www.w3.org/1999/xlink" width="1024" zoomAndPan="magnify" viewBox="0 0 768 767.999994" height="1024" preserveAspectRatio="xMidYMid meet" version="1.0"><defs><clipPath id="fd6445e577"><path d="M 53 151.320312 L 715 151.320312 L 715 554.070312 L 53 554.070312 Z M 53 151.320312 " clip-rule="nonzero"/></clipPath></defs><g clip-path="url(#fd6445e577)"><path fill="#c96533" d="M 130.074219 151.320312 C 119.765625 151.320312 111.46875 159.4375 111.46875 169.523438 L 111.46875 502.539062 C 111.46875 512.128906 110.117188 519.941406 118.847656 520.6875 L 57.699219 520.6875 C 50.460938 520.6875 54.160156 526.324219 54.160156 533.328125 L 54.160156 541.757812 C 54.160156 548.761719 59.988281 554.402344 67.222656 554.402344 L 700.761719 554.402344 C 708 554.402344 713.824219 548.761719 713.824219 541.757812 L 713.824219 533.328125 C 713.824219 526.324219 717.527344 520.6875 710.289062 520.6875 L 649.140625 520.6875 C 657.871094 519.941406 656.519531 512.128906 656.519531 502.539062 L 656.519531 169.523438 C 656.519531 159.4375 648.21875 151.320312 637.914062 151.320312 Z M 290.828125 155.734375 C 293.472656 155.734375 295.617188 157.832031 295.617188 160.421875 C 295.617188 163.007812 293.472656 165.105469 290.828125 165.105469 C 288.183594 165.105469 286.039062 163.007812 286.039062 160.421875 C 286.039062 157.832031 288.183594 155.734375 290.828125 155.734375 Z M 129.621094 169.558594 L 638.367188 169.558594 L 638.367188 502.5 L 129.621094 502.5 Z M 301.289062 520.746094 L 466.703125 520.746094 C 466.453125 524.269531 464.003906 527.023438 460.992188 527.023438 L 307 527.023438 C 303.988281 527.023438 301.535156 524.269531 301.289062 520.746094 Z M 637.144531 530.71875 C 641.039062 530.71875 644.199219 533.773438 644.199219 537.546875 C 644.199219 541.316406 641.039062 544.371094 637.144531 544.371094 C 633.25 544.371094 630.089844 541.316406 630.089844 537.546875 C 630.089844 533.773438 633.25 530.71875 637.144531 530.71875 Z M 659.390625 530.71875 C 663.289062 530.71875 666.445312 533.773438 666.445312 537.546875 C 666.445312 541.316406 663.289062 544.371094 659.390625 544.371094 C 655.496094 544.371094 652.339844 541.316406 652.339844 537.546875 C 652.339844 533.773438 655.496094 530.71875 659.390625 530.71875 Z M 681.640625 530.71875 C 685.535156 530.71875 688.695312 533.773438 688.695312 537.546875 C 688.695312 541.316406 685.535156 544.371094 681.640625 544.371094 C 677.746094 544.371094 674.585938 541.316406 674.585938 537.546875 C 674.585938 533.773438 677.746094 530.71875 681.640625 530.71875 Z M 82.3125 535.238281 L 119.324219 535.238281 C 121.132812 535.238281 122.589844 536.269531 122.589844 537.546875 C 122.589844 538.820312 121.132812 539.851562 119.324219 539.851562 L 82.3125 539.851562 C 80.503906 539.851562 79.046875 538.820312 79.046875 537.546875 C 79.046875 536.269531 80.503906 535.238281 82.3125 535.238281 Z M 82.3125 535.238281 " fill-opacity="1" fill-rule="nonzero"/></g></svg>