<svg xmlns="http://www.w3.org/2000/svg" xmlns:xlink="http://www.w3.org/1999/xlink" width="1024" zoomAndPan="magnify" viewBox="0 0 768 767.999994" height="1024" preserveAspectRatio="xMidYMid meet" version="1.0"><defs><clipPath id="ad511250e9"><path d="M 68.074219 87 L 699.574219 87 L 699.574219 298 L 68.074219 298 Z M 68.074219 87 " clip-rule="nonzero"/></clipPath><clipPath id="b28c09aac3"><path d="M 329 43.148438 L 438 43.148438 L 438 152 L 329 152 Z M 329 43.148438 " clip-rule="nonzero"/></clipPath></defs><g clip-path="url(#ad511250e9)"><path fill="#c96533" d="M 414.902344 297.792969 C 411.757812 297.792969 408.585938 297.511719 405.464844 296.964844 C 397.613281 295.585938 390.269531 292.523438 383.839844 288 C 377.402344 292.527344 370.0625 295.585938 362.21875 296.964844 C 348.003906 299.445312 333.480469 296.207031 321.742188 287.984375 C 320.054688 286.808594 318.832031 285.210938 318.117188 283.425781 C 311.542969 286.199219 304.410156 287.660156 297.085938 287.660156 L 296.125 287.648438 C 281.648438 287.382812 268.148438 281.511719 258.109375 271.109375 C 256.671875 269.625 255.777344 267.8125 255.414062 265.929688 C 248.140625 267.460938 240.453125 267.460938 233.035156 265.890625 C 218.878906 262.878906 206.75 254.535156 198.863281 242.390625 C 197.746094 240.660156 197.210938 238.710938 197.222656 236.792969 C 189.605469 236.734375 182.242188 235.457031 175.242188 232.480469 C 161.933594 226.820312 151.617188 216.332031 146.195312 202.933594 C 145.441406 201.066406 145.257812 199.039062 145.640625 197.097656 C 138.257812 195.777344 131.210938 192.929688 124.898438 188.667969 C 112.910156 180.59375 104.785156 168.316406 102.023438 154.113281 C 101.640625 152.148438 101.84375 150.125 102.589844 148.300781 C 95.636719 145.613281 89.265625 141.480469 83.835938 136.058594 C 73.605469 125.839844 67.972656 112.242188 67.972656 97.769531 C 67.972656 92.117188 72.554688 87.535156 78.207031 87.535156 L 297.75 87.535156 C 303.402344 87.535156 307.984375 92.117188 307.984375 97.769531 C 307.984375 139.59375 342.015625 173.625 383.847656 173.625 C 425.667969 173.625 459.6875 139.59375 459.6875 97.769531 C 459.6875 92.117188 464.273438 87.535156 469.925781 87.535156 L 689.46875 87.535156 C 695.117188 87.535156 699.699219 92.117188 699.699219 97.769531 C 699.699219 112.261719 694.066406 125.859375 683.839844 136.066406 C 678.417969 141.484375 672.042969 145.617188 665.101562 148.296875 C 665.828125 150.078125 666.058594 152.078125 665.667969 154.109375 C 662.914062 168.296875 654.789062 180.574219 642.785156 188.675781 C 636.472656 192.929688 629.425781 195.785156 622.039062 197.097656 C 622.425781 199.039062 622.242188 201.066406 621.488281 202.929688 C 616.066406 216.328125 605.757812 226.820312 592.441406 232.480469 C 585.4375 235.457031 578.066406 236.859375 570.464844 236.792969 C 570.472656 238.710938 569.941406 240.660156 568.816406 242.390625 C 560.9375 254.53125 548.804688 262.878906 534.644531 265.890625 C 527.214844 267.457031 519.53125 267.453125 512.25 265.921875 C 511.890625 267.808594 510.996094 269.613281 509.566406 271.101562 C 499.539062 281.503906 486.042969 287.378906 471.566406 287.644531 L 470.589844 287.65625 C 463.265625 287.65625 456.140625 286.191406 449.558594 283.417969 C 448.839844 285.199219 447.621094 286.796875 445.9375 287.976562 C 436.785156 294.398438 426.054688 297.792969 414.902344 297.792969 Z M 383.84375 264.4375 C 386.558594 264.4375 389.167969 265.519531 391.085938 267.445312 C 396 272.371094 402.195312 275.609375 409.007812 276.808594 C 414.578125 277.785156 420.289062 277.355469 425.503906 275.609375 L 409.019531 249.199219 C 406.285156 244.828125 407.234375 239.105469 411.230469 235.847656 C 415.214844 232.601562 421.007812 232.804688 424.757812 236.367188 L 447.144531 257.679688 C 453.523438 263.828125 461.832031 267.191406 470.589844 267.191406 L 471.199219 267.183594 C 476.671875 267.085938 481.921875 265.695312 486.597656 263.167969 L 455.640625 233.269531 C 451.851562 229.609375 451.460938 223.664062 454.746094 219.539062 C 458.023438 215.40625 463.894531 214.457031 468.328125 217.320312 L 505.046875 241.160156 C 512.515625 246.023438 521.644531 247.734375 530.398438 245.871094 C 535.753906 244.734375 540.644531 242.367188 544.757812 238.984375 L 508.652344 215.535156 C 504.234375 212.667969 502.714844 206.90625 505.148438 202.226562 C 507.582031 197.546875 513.167969 195.480469 518.058594 197.464844 L 558.652344 213.863281 C 566.925781 217.207031 576.203125 217.148438 584.433594 213.648438 C 589.472656 211.503906 593.816406 208.253906 597.207031 204.15625 L 557.289062 188.019531 C 552.402344 186.042969 549.816406 180.675781 551.308594 175.621094 C 552.816406 170.566406 557.914062 167.507812 563.082031 168.484375 L 606.070312 176.851562 C 614.757812 178.539062 623.949219 176.695312 631.332031 171.707031 C 635.875 168.644531 639.523438 164.625 642.070312 159.953125 L 599.800781 151.738281 C 594.625 150.726562 591.0625 145.960938 591.566406 140.707031 C 592.066406 135.460938 596.480469 131.457031 601.75 131.457031 L 645.550781 131.457031 C 654.550781 131.457031 663.007812 127.953125 669.375 121.589844 C 673.238281 117.726562 676.050781 113.085938 677.664062 108.011719 L 479.613281 108.011719 C 474.492188 156.335938 433.488281 194.097656 383.84375 194.097656 C 334.179688 194.097656 293.175781 156.335938 288.050781 108.011719 L 90.015625 108.011719 C 91.625 113.078125 94.433594 117.722656 98.304688 121.589844 C 104.667969 127.953125 113.132812 131.457031 122.125 131.457031 L 165.90625 131.457031 C 171.183594 131.457031 175.589844 135.464844 176.09375 140.710938 C 176.601562 145.960938 173.042969 150.734375 167.863281 151.742188 L 125.613281 159.957031 C 128.164062 164.625 131.8125 168.652344 136.351562 171.707031 C 143.738281 176.699219 152.882812 178.53125 161.628906 176.855469 L 204.59375 168.484375 C 209.804688 167.507812 214.863281 170.574219 216.359375 175.625 C 217.863281 180.683594 215.277344 186.046875 210.386719 188.023438 L 170.472656 204.160156 C 173.867188 208.257812 178.210938 211.511719 183.25 213.652344 C 191.472656 217.148438 200.757812 217.210938 209.023438 213.867188 L 249.628906 197.46875 C 254.515625 195.484375 260.105469 197.550781 262.539062 202.230469 C 264.96875 206.90625 263.457031 212.667969 259.035156 215.539062 L 222.921875 238.988281 C 227.035156 242.371094 231.933594 244.742188 237.285156 245.875 C 246.019531 247.734375 255.171875 246.023438 262.625 241.171875 L 299.351562 217.328125 C 303.777344 214.46875 309.652344 215.417969 312.9375 219.542969 C 316.214844 223.667969 315.824219 229.617188 312.03125 233.28125 L 281.070312 263.171875 C 285.75 265.703125 291.011719 267.09375 296.492188 267.191406 L 297.085938 267.203125 C 305.84375 267.203125 314.140625 263.839844 320.472656 257.734375 L 342.917969 236.378906 C 346.648438 232.820312 352.445312 232.601562 356.441406 235.855469 C 360.433594 239.117188 361.378906 244.835938 358.65625 249.207031 L 342.171875 275.609375 C 347.390625 277.359375 353.089844 277.792969 358.675781 276.8125 C 365.476562 275.613281 371.679688 272.371094 376.597656 267.445312 C 378.519531 265.515625 381.125 264.4375 383.84375 264.4375 Z M 383.84375 264.4375 " fill-opacity="1" fill-rule="nonzero"/></g><path fill="#c96533" d="M 373.605469 141.648438 L 394.074219 141.648438 L 394.074219 690.695312 L 373.605469 690.695312 Z M 373.605469 141.648438 " fill-opacity="1" fill-rule="nonzero"/><g clip-path="url(#b28c09aac3)"><path fill="#c96533" d="M 383.84375 151.882812 C 354 151.882812 329.71875 127.609375 329.71875 97.769531 C 329.71875 67.929688 354 43.648438 383.84375 43.648438 C 413.683594 43.648438 437.964844 67.929688 437.964844 97.769531 C 437.960938 127.609375 413.683594 151.882812 383.84375 151.882812 Z M 383.84375 64.117188 C 365.28125 64.117188 350.191406 79.214844 350.191406 97.769531 C 350.191406 116.320312 365.285156 131.414062 383.84375 131.414062 C 402.394531 131.414062 417.492188 116.316406 417.492188 97.769531 C 417.492188 79.214844 402.394531 64.117188 383.84375 64.117188 Z M 383.84375 64.117188 " fill-opacity="1" fill-rule="nonzero"/></g><path fill="#c96533" d="M 448.652344 519.574219 L 435.160156 504.171875 C 444.125 496.316406 448.859375 487.046875 448.859375 477.359375 C 448.859375 466.214844 442.511719 455.503906 430.992188 447.207031 C 418.703125 438.3125 401.523438 433.226562 383.84375 433.226562 C 356.613281 433.226562 330.867188 425.464844 311.355469 411.378906 C 290.863281 396.59375 279.570312 376.582031 279.570312 355.035156 C 279.570312 333.527344 290.859375 313.523438 311.355469 298.714844 L 323.347656 315.300781 C 308.316406 326.164062 300.035156 340.273438 300.035156 355.035156 C 300.035156 369.828125 308.308594 383.945312 323.335938 394.777344 C 339.394531 406.371094 360.878906 412.753906 383.84375 412.753906 C 406.050781 412.753906 427.050781 419.09375 442.972656 430.609375 C 459.964844 442.847656 469.328125 459.457031 469.328125 477.363281 C 469.332031 492.890625 461.988281 507.878906 448.652344 519.574219 Z M 448.652344 519.574219 " fill-opacity="1" fill-rule="nonzero"/><path fill="#c96533" d="M 416.390625 667.960938 L 404.441406 651.347656 C 408.785156 648.21875 411.179688 644.347656 411.179688 640.453125 C 411.179688 636.53125 408.800781 632.664062 404.472656 629.582031 C 399.167969 625.714844 391.683594 623.535156 383.84375 623.535156 C 367.132812 623.535156 351.1875 618.832031 338.917969 610.296875 C 338.496094 610.023438 338.136719 609.769531 337.753906 609.464844 C 333.113281 606.117188 329.195312 602.296875 326.097656 598.09375 C 320.332031 590.589844 317.222656 581.671875 317.222656 572.472656 C 317.222656 564.945312 319.269531 557.734375 323.316406 551.046875 L 340.832031 561.632812 C 338.75 565.082031 337.691406 568.730469 337.691406 572.472656 C 337.691406 577.191406 339.292969 581.671875 342.449219 585.785156 C 344.441406 588.476562 346.90625 590.839844 349.894531 592.984375 L 350.488281 593.410156 C 359.371094 599.636719 371.21875 603.0625 383.847656 603.0625 C 396.105469 603.0625 407.6875 606.585938 416.453125 612.976562 C 426.078125 619.84375 431.652344 629.882812 431.652344 640.449219 C 431.644531 650.960938 426.085938 660.984375 416.390625 667.960938 Z M 416.390625 667.960938 " fill-opacity="1" fill-rule="nonzero"/><path fill="#c96533" d="M 454.582031 412.566406 L 443.605469 395.28125 L 444.214844 394.863281 C 459.367188 383.933594 467.640625 369.816406 467.640625 355.03125 C 467.640625 340.28125 459.359375 326.167969 444.328125 315.296875 L 456.324219 298.710938 C 476.824219 313.535156 488.109375 333.539062 488.109375 355.03125 C 488.109375 376.570312 476.820312 396.578125 456.316406 411.375 C 455.554688 411.921875 455.113281 412.226562 454.582031 412.566406 Z M 454.582031 412.566406 " fill-opacity="1" fill-rule="nonzero"/><path fill="#c96533" d="M 351.253906 667.949219 C 341.738281 661.085938 336.347656 651.648438 336.070312 641.378906 L 356.53125 640.828125 C 356.628906 644.566406 359.007812 648.308594 363.234375 651.355469 Z M 351.253906 667.949219 " fill-opacity="1" fill-rule="nonzero"/><path fill="#c96533" d="M 441.511719 598.226562 L 425.242188 585.808594 C 428.398438 581.679688 429.996094 577.191406 429.996094 572.472656 C 429.996094 564.964844 425.640625 557.691406 417.746094 551.988281 C 408.925781 545.609375 396.574219 541.953125 383.84375 541.953125 C 361.648438 541.953125 340.640625 535.621094 324.6875 524.117188 C 307.738281 511.859375 298.410156 495.253906 298.410156 477.359375 C 298.410156 463.191406 304.273438 449.777344 315.367188 438.554688 L 329.925781 452.945312 C 322.699219 460.25 318.878906 468.695312 318.878906 477.359375 C 318.878906 488.511719 325.195312 499.226562 336.667969 507.523438 C 348.96875 516.394531 366.167969 521.484375 383.839844 521.484375 C 401.03125 521.484375 417.332031 526.421875 429.730469 535.394531 C 443.097656 545.039062 450.460938 558.210938 450.460938 572.46875 C 450.464844 581.652344 447.371094 590.558594 441.511719 598.226562 Z M 441.511719 598.226562 " fill-opacity="1" fill-rule="nonzero"/></svg>