<svg xmlns="http://www.w3.org/2000/svg" xmlns:xlink="http://www.w3.org/1999/xlink" width="1024" zoomAndPan="magnify" viewBox="0 0 768 767.999994" height="1024" preserveAspectRatio="xMidYMid meet" version="1.0"><defs><clipPath id="120f1ebdff"><path d="M 301 421.605469 L 583 421.605469 L 583 690.984375 L 301 690.984375 Z M 301 421.605469 " clip-rule="nonzero"/></clipPath><clipPath id="d157238292"><path d="M 534 376 L 616.132812 376 L 616.132812 458.730469 L 534 458.730469 Z M 534 376 " clip-rule="nonzero"/></clipPath></defs><path fill="#000000" d="M 447.914062 108.332031 C 436.300781 90.527344 418.789062 78.027344 398.84375 72.640625 C 400.097656 74.210938 400.875 75.75 400.875 77.085938 C 400.875 79.84375 397.761719 83.441406 393.199219 86.503906 C 410.402344 90.671875 425.554688 101.207031 435.484375 116.4375 C 448.527344 136.433594 450.566406 161.410156 440.941406 183.261719 L 396.1875 284.839844 C 398.710938 284.003906 401.515625 284.027344 404.125 285.1875 C 406.753906 286.347656 408.671875 288.402344 409.765625 290.824219 L 454.515625 189.246094 C 466.167969 162.789062 463.703125 132.539062 447.914062 108.332031 " fill-opacity="1" fill-rule="nonzero"/><path fill="#000000" d="M 213.265625 283.589844 C 215.875 282.429688 218.683594 282.40625 221.203125 283.238281 L 177.152344 183.261719 C 167.53125 161.410156 169.574219 136.433594 182.613281 116.4375 C 192.511719 101.253906 207.605469 90.734375 224.738281 86.539062 C 220.148438 83.472656 217.015625 79.863281 217.015625 77.085938 C 217.015625 75.769531 217.765625 74.261719 218.984375 72.714844 C 199.152344 78.144531 181.746094 90.605469 170.183594 108.332031 C 154.394531 132.539062 151.925781 162.789062 163.578125 189.246094 L 207.625 289.222656 C 208.71875 286.808594 210.636719 284.75 213.265625 283.589844 " fill-opacity="1" fill-rule="nonzero"/><path fill="#c96533" d="M 231.042969 90.550781 C 235.164062 91.878906 239.285156 93.203125 243.402344 94.527344 C 251.910156 97.777344 258.867188 89.925781 258.867188 77.085938 C 258.867188 64.238281 251.910156 56.390625 243.402344 59.636719 C 239.285156 60.964844 235.164062 62.285156 231.042969 63.613281 C 222.542969 66.859375 215.585938 72.921875 215.585938 77.085938 C 215.585938 81.238281 222.542969 87.304688 231.042969 90.550781 " fill-opacity="1" fill-rule="nonzero"/><path fill="#c96533" d="M 386.84375 90.550781 C 382.722656 91.878906 378.601562 93.203125 374.480469 94.527344 C 365.976562 97.777344 359.023438 89.925781 359.023438 77.085938 C 359.023438 64.238281 365.976562 56.390625 374.480469 59.636719 C 378.601562 60.964844 382.722656 62.285156 386.84375 63.613281 C 395.347656 66.859375 402.300781 72.921875 402.300781 77.085938 C 402.300781 81.238281 395.347656 87.304688 386.84375 90.550781 " fill-opacity="1" fill-rule="nonzero"/><g clip-path="url(#120f1ebdff)"><path fill="#c96533" d="M 575.339844 457.152344 C 572.800781 457.152344 570.324219 456.890625 567.917969 456.445312 L 567.917969 550.25 C 567.917969 619.667969 511.441406 676.148438 442.015625 676.148438 C 372.59375 676.148438 316.113281 619.667969 316.113281 550.25 L 316.113281 422.488281 C 313.695312 425.203125 310.980469 427.082031 309.054688 427.105469 C 306.929688 427.082031 303.847656 424.824219 301.273438 421.65625 L 301.273438 550.25 C 301.273438 627.847656 364.410156 690.984375 442.015625 690.984375 C 519.621094 690.984375 582.757812 627.847656 582.757812 550.25 L 582.757812 456.445312 C 580.347656 456.890625 577.878906 457.152344 575.339844 457.152344 " fill-opacity="1" fill-rule="nonzero"/></g><path fill="#c96533" d="M 411.265625 298.449219 L 390.421875 345.710938 C 378.625 372.5625 355.546875 391.042969 327.914062 396.867188 C 326.6875 404.621094 322.753906 411.554688 319.300781 419.496094 C 316.558594 424.386719 311.921875 428.511719 309.066406 428.542969 C 306.171875 428.511719 301.574219 424.386719 298.824219 419.457031 C 295.339844 411.554688 291.40625 404.621094 290.222656 396.867188 C 262.585938 391.078125 239.511719 372.5625 227.679688 345.710938 L 206.125 296.816406 C 203.636719 291.214844 206.199219 284.648438 211.835938 282.164062 C 217.4375 279.675781 224.003906 282.234375 226.492188 287.839844 L 248.042969 336.730469 C 258.835938 361.289062 282.210938 376.535156 309.066406 376.535156 C 335.886719 376.535156 359.257812 361.289062 370.050781 336.730469 L 390.902344 289.46875 C 393.386719 283.832031 399.953125 281.277344 405.554688 283.757812 C 411.191406 286.246094 413.753906 292.8125 411.265625 298.449219 " fill-opacity="1" fill-rule="nonzero"/><g clip-path="url(#d157238292)"><path fill="#000000" d="M 616.144531 417.773438 C 616.144531 440.3125 597.875 458.582031 575.339844 458.582031 C 552.800781 458.582031 534.53125 440.3125 534.53125 417.773438 C 534.53125 395.238281 552.800781 376.96875 575.339844 376.96875 C 597.875 376.96875 616.144531 395.238281 616.144531 417.773438 " fill-opacity="1" fill-rule="nonzero"/></g><path fill="#c96533" d="M 605.015625 417.773438 C 605.015625 434.167969 591.726562 447.453125 575.339844 447.453125 C 558.945312 447.453125 545.660156 434.167969 545.660156 417.773438 C 545.660156 401.386719 558.945312 388.097656 575.339844 388.097656 C 591.726562 388.097656 605.015625 401.386719 605.015625 417.773438 " fill-opacity="1" fill-rule="nonzero"/><path fill="#000000" d="M 597.597656 417.773438 C 597.597656 430.066406 587.628906 440.035156 575.339844 440.035156 C 563.046875 440.035156 553.078125 430.066406 553.078125 417.773438 C 553.078125 405.484375 563.046875 395.515625 575.339844 395.515625 C 587.628906 395.515625 597.597656 405.484375 597.597656 417.773438 " fill-opacity="1" fill-rule="nonzero"/></svg>