<svg xmlns="http://www.w3.org/2000/svg" xmlns:xlink="http://www.w3.org/1999/xlink" width="500" zoomAndPan="magnify" viewBox="0 0 375 374.999991" height="500" preserveAspectRatio="xMidYMid meet" version="1.0"><defs><clipPath id="4104130f3f"><path d="M 22.273438 37.5 L 353 37.5 L 353 329.25 L 22.273438 329.25 Z M 22.273438 37.5 " clip-rule="nonzero"/></clipPath></defs><g clip-path="url(#4104130f3f)"><path fill="#c96533" d="M 352.632812 249.117188 L 352.632812 62.863281 C 352.632812 62.035156 352.59375 61.203125 352.511719 60.378906 C 352.429688 59.550781 352.308594 58.730469 352.148438 57.914062 C 351.984375 57.101562 351.785156 56.296875 351.542969 55.5 C 351.300781 54.707031 351.023438 53.925781 350.703125 53.15625 C 350.386719 52.390625 350.03125 51.640625 349.640625 50.90625 C 349.246094 50.175781 348.820312 49.464844 348.359375 48.773438 C 347.898438 48.082031 347.402344 47.414062 346.878906 46.773438 C 346.351562 46.132812 345.792969 45.515625 345.207031 44.929688 C 344.617188 44.339844 344.003906 43.785156 343.359375 43.257812 C 342.71875 42.730469 342.050781 42.234375 341.363281 41.773438 C 340.671875 41.3125 339.960938 40.886719 339.226562 40.496094 C 338.492188 40.101562 337.742188 39.75 336.976562 39.429688 C 336.210938 39.113281 335.429688 38.832031 334.632812 38.59375 C 333.839844 38.351562 333.03125 38.148438 332.21875 37.988281 C 331.402344 37.824219 330.582031 37.703125 329.757812 37.621094 C 328.929688 37.539062 328.101562 37.5 327.269531 37.5 L 47.722656 37.5 C 46.890625 37.5 46.0625 37.539062 45.234375 37.621094 C 44.410156 37.703125 43.585938 37.824219 42.773438 37.988281 C 41.957031 38.148438 41.152344 38.351562 40.359375 38.59375 C 39.5625 38.832031 38.78125 39.113281 38.015625 39.429688 C 37.246094 39.75 36.496094 40.101562 35.765625 40.496094 C 35.03125 40.886719 34.320312 41.3125 33.628906 41.773438 C 32.9375 42.234375 32.273438 42.730469 31.628906 43.257812 C 30.988281 43.785156 30.375 44.339844 29.785156 44.929688 C 29.199219 45.515625 28.640625 46.132812 28.113281 46.773438 C 27.585938 47.414062 27.09375 48.082031 26.632812 48.773438 C 26.171875 49.464844 25.742188 50.175781 25.351562 50.90625 C 24.960938 51.640625 24.605469 52.390625 24.289062 53.15625 C 23.96875 53.925781 23.691406 54.707031 23.449219 55.5 C 23.207031 56.296875 23.007812 57.101562 22.84375 57.914062 C 22.683594 58.730469 22.558594 59.550781 22.480469 60.378906 C 22.398438 61.203125 22.355469 62.035156 22.355469 62.863281 L 22.355469 249.117188 C 22.355469 249.949219 22.398438 250.777344 22.480469 251.601562 C 22.558594 252.429688 22.683594 253.25 22.84375 254.066406 C 23.007812 254.878906 23.207031 255.683594 23.449219 256.480469 C 23.691406 257.273438 23.96875 258.054688 24.289062 258.824219 C 24.605469 259.589844 24.960938 260.339844 25.351562 261.074219 C 25.742188 261.804688 26.171875 262.519531 26.632812 263.207031 C 27.09375 263.898438 27.585938 264.566406 28.113281 265.207031 C 28.640625 265.851562 29.199219 266.464844 29.785156 267.050781 C 30.375 267.640625 30.988281 268.195312 31.628906 268.722656 C 32.273438 269.25 32.9375 269.746094 33.628906 270.207031 C 34.320312 270.667969 35.03125 271.09375 35.765625 271.484375 C 36.496094 271.878906 37.246094 272.234375 38.015625 272.550781 C 38.78125 272.867188 39.5625 273.148438 40.359375 273.390625 C 41.152344 273.628906 41.957031 273.832031 42.773438 273.992188 C 43.585938 274.15625 44.410156 274.277344 45.234375 274.359375 C 46.0625 274.441406 46.890625 274.480469 47.722656 274.480469 L 152.890625 274.480469 L 152.890625 289.160156 C 152.890625 289.828125 152.855469 290.5 152.792969 291.164062 C 152.726562 291.832031 152.628906 292.496094 152.496094 293.152344 C 152.367188 293.808594 152.203125 294.460938 152.007812 295.101562 C 151.8125 295.742188 151.589844 296.371094 151.332031 296.992188 C 151.074219 297.609375 150.789062 298.214844 150.472656 298.808594 C 150.15625 299.398438 149.8125 299.972656 149.441406 300.53125 C 149.066406 301.085938 148.667969 301.625 148.242188 302.144531 C 147.816406 302.660156 147.367188 303.15625 146.894531 303.632812 C 146.421875 304.105469 145.925781 304.554688 145.40625 304.980469 C 144.886719 305.40625 144.351562 305.804688 143.792969 306.175781 C 143.234375 306.550781 142.660156 306.894531 142.070312 307.210938 C 141.476562 307.527344 140.875 307.8125 140.253906 308.070312 C 139.632812 308.324219 139.003906 308.550781 138.363281 308.746094 C 137.722656 308.941406 137.070312 309.101562 136.414062 309.234375 C 135.757812 309.363281 135.09375 309.460938 134.425781 309.527344 C 133.761719 309.59375 133.089844 309.625 132.421875 309.625 L 109.515625 309.625 C 108.863281 309.625 108.214844 309.660156 107.566406 309.722656 C 106.917969 309.785156 106.273438 309.882812 105.632812 310.007812 C 104.996094 310.136719 104.363281 310.292969 103.738281 310.484375 C 103.117188 310.671875 102.503906 310.890625 101.898438 311.140625 C 101.296875 311.390625 100.710938 311.667969 100.132812 311.976562 C 99.558594 312.285156 99 312.617188 98.460938 312.980469 C 97.917969 313.34375 97.394531 313.730469 96.890625 314.144531 C 96.386719 314.558594 95.90625 314.996094 95.445312 315.457031 C 94.984375 315.917969 94.546875 316.398438 94.132812 316.902344 C 93.71875 317.40625 93.332031 317.929688 92.96875 318.472656 C 92.605469 319.011719 92.273438 319.570312 91.964844 320.148438 C 91.65625 320.722656 91.378906 321.308594 91.128906 321.914062 C 90.878906 322.515625 90.660156 323.128906 90.472656 323.75 C 90.28125 324.375 90.125 325.007812 89.996094 325.644531 C 89.871094 326.285156 89.773438 326.929688 89.710938 327.578125 C 89.648438 328.226562 89.613281 328.875 89.613281 329.527344 L 285.378906 329.527344 C 285.378906 328.875 285.347656 328.226562 285.285156 327.578125 C 285.21875 326.929688 285.125 326.285156 284.996094 325.644531 C 284.871094 325.007812 284.710938 324.375 284.523438 323.75 C 284.332031 323.128906 284.113281 322.515625 283.863281 321.914062 C 283.613281 321.308594 283.335938 320.722656 283.03125 320.148438 C 282.722656 319.570312 282.386719 319.011719 282.023438 318.472656 C 281.664062 317.929688 281.277344 317.40625 280.863281 316.902344 C 280.449219 316.398438 280.011719 315.917969 279.550781 315.457031 C 279.089844 314.996094 278.605469 314.558594 278.101562 314.144531 C 277.597656 313.730469 277.078125 313.34375 276.535156 312.980469 C 275.992188 312.617188 275.433594 312.285156 274.859375 311.976562 C 274.285156 311.667969 273.695312 311.390625 273.09375 311.140625 C 272.492188 310.890625 271.878906 310.671875 271.253906 310.484375 C 270.632812 310.292969 270 310.136719 269.359375 310.007812 C 268.722656 309.882812 268.078125 309.785156 267.429688 309.722656 C 266.78125 309.660156 266.128906 309.625 265.476562 309.625 L 242.570312 309.625 C 241.898438 309.625 241.230469 309.59375 240.5625 309.527344 C 239.898438 309.460938 239.234375 309.363281 238.578125 309.234375 C 237.917969 309.101562 237.269531 308.941406 236.628906 308.746094 C 235.988281 308.550781 235.355469 308.324219 234.738281 308.070312 C 234.117188 307.8125 233.511719 307.527344 232.921875 307.210938 C 232.332031 306.894531 231.757812 306.550781 231.199219 306.175781 C 230.640625 305.804688 230.101562 305.40625 229.585938 304.980469 C 229.066406 304.554688 228.570312 304.105469 228.097656 303.632812 C 227.621094 303.15625 227.171875 302.660156 226.746094 302.144531 C 226.324219 301.625 225.921875 301.085938 225.550781 300.53125 C 225.179688 299.972656 224.835938 299.398438 224.519531 298.808594 C 224.203125 298.214844 223.917969 297.609375 223.660156 296.992188 C 223.402344 296.371094 223.175781 295.742188 222.984375 295.101562 C 222.789062 294.460938 222.625 293.808594 222.496094 293.152344 C 222.363281 292.496094 222.265625 291.832031 222.199219 291.164062 C 222.132812 290.5 222.101562 289.828125 222.101562 289.160156 L 222.101562 274.480469 L 327.269531 274.480469 C 328.101562 274.480469 328.929688 274.441406 329.757812 274.359375 C 330.582031 274.277344 331.402344 274.15625 332.21875 273.992188 C 333.03125 273.832031 333.835938 273.628906 334.632812 273.390625 C 335.429688 273.148438 336.207031 272.867188 336.976562 272.550781 C 337.742188 272.234375 338.492188 271.878906 339.226562 271.484375 C 339.960938 271.09375 340.671875 270.667969 341.363281 270.207031 C 342.050781 269.746094 342.71875 269.25 343.359375 268.722656 C 344.003906 268.195312 344.617188 267.640625 345.207031 267.050781 C 345.792969 266.464844 346.351562 265.851562 346.875 265.207031 C 347.402344 264.566406 347.898438 263.898438 348.359375 263.207031 C 348.820312 262.519531 349.246094 261.804688 349.640625 261.074219 C 350.03125 260.339844 350.386719 259.589844 350.703125 258.824219 C 351.019531 258.054688 351.300781 257.273438 351.542969 256.480469 C 351.78125 255.683594 351.984375 254.878906 352.148438 254.066406 C 352.308594 253.25 352.429688 252.429688 352.511719 251.601562 C 352.59375 250.777344 352.632812 249.949219 352.632812 249.117188 Z M 37.839844 239.753906 L 37.839844 63.96875 C 37.839844 63.269531 37.90625 62.574219 38.042969 61.890625 C 38.179688 61.203125 38.382812 60.535156 38.648438 59.890625 C 38.917969 59.242188 39.246094 58.628906 39.636719 58.046875 C 40.023438 57.464844 40.464844 56.925781 40.960938 56.429688 C 41.457031 55.933594 41.996094 55.492188 42.578125 55.105469 C 43.160156 54.714844 43.773438 54.386719 44.421875 54.121094 C 45.066406 53.851562 45.734375 53.648438 46.421875 53.511719 C 47.105469 53.375 47.800781 53.308594 48.5 53.308594 L 326.492188 53.308594 C 327.191406 53.308594 327.882812 53.375 328.570312 53.511719 C 329.257812 53.648438 329.925781 53.851562 330.570312 54.121094 C 331.21875 54.386719 331.832031 54.714844 332.414062 55.105469 C 332.996094 55.492188 333.535156 55.933594 334.03125 56.429688 C 334.523438 56.925781 334.964844 57.464844 335.355469 58.046875 C 335.746094 58.628906 336.074219 59.242188 336.339844 59.890625 C 336.609375 60.535156 336.8125 61.203125 336.949219 61.890625 C 337.085938 62.574219 337.152344 63.269531 337.152344 63.96875 L 337.152344 239.753906 C 337.152344 240.457031 337.085938 241.148438 336.949219 241.835938 C 336.8125 242.523438 336.609375 243.1875 336.339844 243.835938 C 336.074219 244.480469 335.746094 245.097656 335.355469 245.679688 C 334.964844 246.261719 334.523438 246.800781 334.03125 247.292969 C 333.535156 247.789062 332.996094 248.230469 332.414062 248.621094 C 331.832031 249.007812 331.21875 249.335938 330.570312 249.605469 C 329.925781 249.871094 329.257812 250.074219 328.570312 250.210938 C 327.882812 250.347656 327.191406 250.417969 326.492188 250.417969 L 48.5 250.417969 C 47.800781 250.417969 47.105469 250.347656 46.421875 250.210938 C 45.734375 250.074219 45.066406 249.871094 44.421875 249.605469 C 43.773438 249.335938 43.160156 249.007812 42.578125 248.621094 C 41.996094 248.230469 41.457031 247.789062 40.960938 247.292969 C 40.464844 246.800781 40.023438 246.261719 39.636719 245.679688 C 39.246094 245.097656 38.917969 244.480469 38.648438 243.835938 C 38.382812 243.1875 38.179688 242.523438 38.042969 241.835938 C 37.90625 241.148438 37.839844 240.457031 37.839844 239.753906 Z M 37.839844 239.753906 " fill-opacity="1" fill-rule="nonzero"/></g></svg>